<svg width="343" height="66" viewBox="0 0 343 66" fill="none" xmlns="http://www.w3.org/2000/svg">
<path d="M3.24463 48.7385H339.394L309.148 10.1074H36.1858L3.24463 48.7385Z" stroke="#0FF3F2" stroke-width="2.99465" stroke-miterlimit="10"/>
<path d="M20.3892 4.86621H324.346L286.239 60.8662H54.3036L20.3892 4.86621Z" fill="white" stroke="#8300C0" stroke-width="9.73262" stroke-miterlimit="10"/>
<path d="M115.199 29.6603C115.199 31.1687 114.879 32.5738 114.239 33.8756C113.619 35.1567 112.751 36.2725 111.635 37.223C110.54 38.1528 109.228 38.8864 107.699 39.4236C106.17 39.9609 104.506 40.2295 102.709 40.2295H88.8229V27.3047H95.2698V34.8984H102.709C103.597 34.8984 104.413 34.7848 105.157 34.5575C105.922 34.3095 106.573 33.9686 107.11 33.5346C107.647 33.1007 108.071 32.5841 108.381 31.9849C108.69 31.365 108.845 30.6831 108.845 29.9393C108.845 29.2161 108.69 28.5445 108.381 27.9246C108.071 27.3047 107.637 26.7778 107.079 26.3439C106.521 25.8893 105.87 25.538 105.126 25.2901C104.382 25.0214 103.576 24.8871 102.709 24.8871H88.8229L92.9142 19.4941H102.709C104.527 19.4941 106.201 19.742 107.73 20.2379C109.259 20.7338 110.571 21.4364 111.666 22.3456C112.782 23.2341 113.65 24.3086 114.27 25.569C114.889 26.8088 115.199 28.1726 115.199 29.6603ZM142.538 34.8984L138.416 40.2295H118.455V19.4941H142.476L138.323 24.8871H124.902V27.3667H141.33L137.641 32.0779H124.902V34.8984H142.538ZM171.105 34.8984L166.982 40.2295H156.568C154.771 40.2295 153.107 39.9609 151.578 39.4236C150.049 38.8864 148.727 38.1528 147.611 37.223C146.516 36.2725 145.648 35.1567 145.007 33.8756C144.387 32.5738 144.077 31.1687 144.077 29.6603C144.077 28.1519 144.387 26.7778 145.007 25.538C145.648 24.2776 146.516 23.2031 147.611 22.3146C148.727 21.4054 150.049 20.7132 151.578 20.2379C153.107 19.742 154.771 19.4941 156.568 19.4941H171.105L166.982 24.8871H156.568C155.7 24.8871 154.895 25.0111 154.151 25.2591C153.407 25.507 152.766 25.8583 152.229 26.3129C151.692 26.7468 151.268 27.2737 150.958 27.8936C150.648 28.5135 150.493 29.1954 150.493 29.9393C150.493 30.6831 150.638 31.365 150.927 31.9849C151.237 32.5841 151.661 33.1007 152.198 33.5346C152.756 33.9686 153.407 34.3095 154.151 34.5575C154.895 34.7848 155.7 34.8984 156.568 34.8984H171.105ZM187.615 34.8984H201.81C202.513 34.8984 203.019 34.7744 203.329 34.5265C203.639 34.2785 203.794 33.9169 203.794 33.4417C203.794 32.9871 203.639 32.6461 203.329 32.4188C203.019 32.1709 202.513 32.0469 201.81 32.0469H189.381L192.698 27.6147H201.903C202.378 27.6147 202.792 27.5217 203.143 27.3357C203.515 27.1291 203.701 26.7571 203.701 26.2199C203.701 25.7033 203.515 25.3521 203.143 25.1661C202.771 24.9801 202.358 24.8871 201.903 24.8871H184.546L188.668 19.4941H201.624C202.864 19.4941 203.98 19.618 204.972 19.866C205.984 20.0933 206.842 20.4549 207.544 20.9508C208.267 21.4261 208.815 22.0253 209.187 22.7485C209.579 23.451 209.776 24.2776 209.776 25.2281C209.776 25.848 209.693 26.3955 209.528 26.8708C209.362 27.346 209.145 27.7696 208.877 28.1416C208.629 28.4928 208.329 28.7925 207.978 29.0404C207.647 29.2677 207.306 29.4434 206.955 29.5673C207.864 29.8359 208.629 30.3629 209.249 31.1481C209.889 31.9333 210.21 32.9457 210.21 34.1855C210.21 35.0534 210.075 35.8592 209.807 36.6031C209.538 37.3263 209.083 37.9566 208.443 38.4938C207.802 39.031 206.935 39.4546 205.839 39.7646C204.765 40.0745 203.411 40.2295 201.779 40.2295H183.523L187.615 34.8984ZM225.432 27.7386L222.302 31.737H211.949L215.08 27.7386H225.432ZM239.345 24.8871C238.063 24.8871 236.937 25.1454 235.966 25.662C234.995 26.1786 234.272 26.8811 233.797 27.7696H246.907C249.263 27.7696 251.143 28.2552 252.548 29.2264C253.953 30.1976 254.656 31.6233 254.656 33.5037C254.656 34.9294 254.294 36.1072 253.571 37.037C252.848 37.9462 251.887 38.6694 250.689 39.2067C249.49 39.7232 248.106 40.0745 246.535 40.2605C244.986 40.4671 243.374 40.5704 241.7 40.5704C236.927 40.5704 233.311 39.7026 230.852 37.9669C228.393 36.2105 227.164 33.4417 227.164 29.6603C227.164 28.1519 227.474 26.7778 228.094 25.538C228.734 24.2776 229.602 23.2031 230.697 22.3146C231.813 21.4054 233.135 20.7132 234.664 20.2379C236.193 19.742 237.857 19.4941 239.655 19.4941H253.013L248.891 24.8871H239.345ZM233.797 31.8919C233.983 32.5738 234.292 33.1317 234.726 33.5656C235.16 33.9996 235.718 34.3405 236.4 34.5885C237.082 34.8158 237.888 34.9707 238.818 35.0534C239.768 35.136 240.853 35.1774 242.072 35.1774C243.395 35.1774 244.479 35.136 245.327 35.0534C246.194 34.9707 246.866 34.8571 247.341 34.7124C247.816 34.5471 248.147 34.3508 248.333 34.1235C248.519 33.8756 248.612 33.607 248.612 33.3177C248.612 32.3672 247.878 31.8919 246.411 31.8919H233.797Z" fill="#8300C0"/>
<path d="M63.1378 22.7598L50.0361 51.4336H22.9346L35.5869 22.7598H63.1378Z" fill="#0FF3F2"/>
<path d="M41.6511 28.749L42.849 35.1127L50.3356 31.2945L44.1217 36.61L50.3356 39.5298L42.849 38.6314L41.6511 45.4442L40.4532 39.0806L33.0415 42.9736L39.2554 37.5832L33.0415 34.5886L40.4532 35.6367L41.6511 28.749Z" fill="#8300C0"/>
<path d="M279.127 22.7598L292.229 51.4336H319.33L306.678 22.7598H279.127Z" fill="#0FF3F2"/>
<path d="M299.266 28.3747L300.614 33.8399L307.501 28.0752L301.961 35.1126L307.501 36.5351L300.614 37.8078L299.266 44.5458L297.919 39.0805L290.956 44.5458L296.571 37.8078L290.956 36.8345L297.919 35.1875L299.266 28.3747Z" fill="#8300C0"/>
</svg>
