<svg width="20" height="14" viewBox="0 0 20 14" fill="none" xmlns="http://www.w3.org/2000/svg">
<path d="M7.79305 7.721L4.25319 13.8507C4.20113 13.945 4.10028 14.0003 3.99291 14.0003C3.88554 14.0003 3.78794 13.9418 3.73263 13.8507L0.192773 7.721C-0.0642575 7.27526 -0.0642575 6.72866 0.192773 6.28618L3.73263 0.156506C3.78469 0.0621533 3.88554 0.00683594 3.99291 0.00683594C4.10028 0.00683594 4.19788 0.0654069 4.25319 0.156506L7.79305 6.28618C8.05008 6.73192 8.05008 7.27851 7.79305 7.721Z" fill="#0FF3F2"/>
<path d="M7.79305 7.721L4.25319 13.8507C4.20113 13.945 4.10028 14.0003 3.99291 14.0003C3.88554 14.0003 3.78794 13.9418 3.73263 13.8507L0.192773 7.721C-0.0642575 7.27526 -0.0642575 6.72866 0.192773 6.28618L3.73263 0.156506C3.78469 0.0621533 3.88554 0.00683594 3.99291 0.00683594C4.10028 0.00683594 4.19788 0.0654069 4.25319 0.156506L7.79305 6.28618C8.05008 6.73192 8.05008 7.27851 7.79305 7.721Z" fill="#0FF3F2"/>
<path d="M14.3327 7.3888L10.7375 13.6161C10.6009 13.8536 10.3471 14 10.0705 14H7.61737C7.02523 14 6.65433 13.3591 6.9504 12.845L10.1031 7.38554C10.2397 7.14803 10.2397 6.85521 10.1031 6.61445L6.9504 1.155C6.65433 0.640944 7.02523 0 7.61737 0H10.0705C10.3471 0 10.6009 0.146407 10.7375 0.383916L14.3327 6.6112C14.4693 6.84871 14.4693 7.14153 14.3327 7.38229V7.3888Z" fill="#0FF3F2"/>
<path d="M4.25319 0.15259L7.79305 6.28227C8.05008 6.728 8.05008 7.2746 7.79305 7.71708L4.25319 13.8468C4.20113 13.9411 4.10028 13.9964 3.99291 13.9964C3.88554 13.9964 3.78794 13.9379 3.73263 13.8468L0.192773 7.71708C-0.0642575 7.27134 -0.0642575 6.72475 0.192773 6.28227L3.73263 0.15259C3.78469 0.0582372 3.88554 0.00292969 3.99291 0.00292969C4.10028 0.00292969 4.19788 0.0614907 4.25319 0.15259Z" fill="#0FF3F2"/>
<path d="M19.3008 7.3888L15.7057 13.6161C15.569 13.8536 15.3153 14 15.0387 14H13.3143C12.7222 14 12.3513 13.3591 12.6474 12.845L15.8 7.38554C15.9367 7.14803 15.9367 6.85521 15.8 6.61445L12.6474 1.155C12.3513 0.640944 12.7222 0 13.3143 0H15.0387C15.3153 0 15.569 0.146407 15.7057 0.383916L19.3008 6.6112C19.4375 6.84871 19.4375 7.14153 19.3008 7.38229V7.3888Z" fill="#0FF3F2"/>
</svg>
