<svg width="497" height="97" viewBox="0 0 497 97" fill="none" xmlns="http://www.w3.org/2000/svg">
<path d="M347.203 10.798C349.134 11.2369 351.076 12.7102 352.183 13.6716C353.133 14.7792 354.616 16.7333 355.044 18.6769C355.044 18.6769 355.075 19.1785 355.106 18.9904C355.138 19.1785 355.169 18.6769 355.169 18.6769C355.597 16.7333 357.08 14.7792 358.03 13.6716C359.137 12.7207 361.079 11.2264 363.01 10.798C363.01 10.798 363.511 10.7666 363.313 10.7353C363.501 10.7039 363.01 10.6726 363.01 10.6726C361.079 10.2442 359.137 8.76034 358.03 7.79899C357.08 6.69134 355.597 4.73729 355.169 2.79368C355.169 2.79368 355.138 2.2921 355.106 2.48019C355.075 2.2921 355.044 2.79368 355.044 2.79368C354.616 4.73729 353.133 6.69134 352.183 7.79899C351.076 8.74989 349.134 10.2442 347.203 10.6726C347.203 10.6726 346.702 10.7039 346.9 10.7353C346.712 10.7666 347.203 10.798 347.203 10.798Z" fill="white"/>
<path d="M3.88661 39.6073H17.4284C28.7045 39.6073 34.7289 33.3167 34.7289 20.3384C34.7289 7.36013 28.6419 1.00684 17.4284 1.00684H3.88661C1.72535 1.00684 0.702148 2.04133 0.702148 4.15213V36.462C0.702148 38.5832 1.72535 39.6073 3.88661 39.6073ZM7.42606 8.44688C7.42606 7.93485 7.65576 7.75722 8.16736 7.75722H17.4493C24.9041 7.75722 28.0363 11.4668 28.0363 20.2757C28.0363 29.0847 24.9041 32.8569 17.4493 32.8569H8.16736C7.65576 32.8569 7.42606 32.6897 7.42606 32.1672V8.43643V8.44688Z" fill="white"/>
<path d="M41.6929 29.0847C41.6929 35.0828 45.3994 39.6074 54.5038 39.6074H73.976V32.8675H54.5038C50.578 32.8675 48.6987 31.0283 48.6987 28.0084C48.6987 24.9885 50.6929 23.3271 54.556 23.3271H73.621V17.2037H54.7231C50.8495 17.2037 48.8657 15.7721 48.8657 12.6372C48.8657 9.66957 50.6302 7.7782 54.6709 7.7782H73.9134V1.02783H54.6709C45.6291 1.02783 41.8077 5.37482 41.8077 11.5505C41.8077 15.7825 43.6349 18.7502 47.2161 20.2445C43.6871 21.7283 41.6929 24.7064 41.6929 29.1056V29.0952V29.0847Z" fill="white"/>
<path d="M113.703 32.8569H98.8461C91.3913 32.8569 88.2068 29.1474 88.2068 20.3384C88.2068 11.5295 91.4539 7.75722 98.8461 7.75722H113.703V1.00684H98.8461C87.6848 1.00684 81.4829 7.36013 81.4829 20.3384C81.4829 33.3167 87.6326 39.6073 98.8461 39.6073H113.703V32.8569Z" fill="white"/>
<path d="M127.757 27.9977C127.757 24.8524 129.751 23.3163 133.614 23.3163H152.679V17.1929H133.781C129.908 17.1929 127.924 15.7613 127.924 12.616C127.924 9.64839 129.688 7.75703 133.729 7.75703H152.971V1.01709H133.729C124.687 1.01709 120.866 5.36409 120.866 11.5397C120.866 15.7718 122.693 18.7394 126.274 20.2337C122.745 21.7176 120.751 24.6957 120.751 29.0949C120.751 35.0929 124.457 39.6176 133.562 39.6176H153.034V32.8776H133.562C129.636 32.8776 127.757 31.049 127.757 28.0186V27.9977Z" fill="white"/>
<path d="M167.004 9.07386C167.004 7.70498 167.808 6.84812 169.332 6.84812C170.523 6.84812 171.212 7.36014 171.723 8.50958L182.937 33.1495C184.534 37.5488 186.977 40.297 192.333 40.297C198.253 40.297 201.156 36.9218 201.156 31.8329V1.00685H194.38V31.5403C194.38 32.8569 193.524 33.7138 192.104 33.7138C190.851 33.7138 190.11 33.0241 189.661 32.115L178.447 7.47509C176.85 3.07585 174.459 0.327637 169.113 0.327637C163.141 0.327637 160.291 3.70282 160.291 8.72903V39.6073H167.004V9.07386Z" fill="white"/>
<path d="M219.469 39.6071H226.245V7.76748H237.459V1.01709H208.256V7.76748H219.469V39.6071Z" fill="white"/>
<path d="M272.06 39.6071H279.515L270.577 24.1732C276.435 22.5117 278.721 17.3706 278.721 12.5638C278.721 6.38814 275.025 1.01709 266.37 1.01709H245.53V7.75703H266.589C270.295 7.75703 271.945 10.0977 271.945 12.8459C271.945 15.5942 270.41 18.2274 266.589 18.2274H251.617C247.409 18.2274 245.582 19.9934 245.582 24.3508V39.6176H252.295V25.6675C252.295 24.9778 252.64 24.6957 253.266 24.6957H263.279L272.039 39.6176H272.05L272.06 39.6071Z" fill="white"/>
<path d="M305.116 7.2452C306.024 7.2452 306.651 7.64228 306.995 8.56183L318.658 39.6073H326.112L313.134 5.30159C311.777 1.69652 309.156 0.327637 305.168 0.327637C301.18 0.327637 298.507 1.69652 297.087 5.30159L283.597 39.6073H291L303.184 8.56183C303.581 7.65273 304.207 7.2452 305.116 7.2452Z" fill="white"/>
<path d="M392.412 5.30159C391.044 1.69652 388.434 0.327637 384.445 0.327637C380.457 0.327637 377.784 1.69652 376.364 5.30159L366.362 30.7252C365.85 32.0105 364.618 32.8569 363.24 32.8569H344.666C338.631 32.8569 336.814 29.9415 336.814 26.2319V1.01729H330.101V26.2842C330.101 34.0064 334.079 39.6073 344.269 39.6073H366.685C368.847 39.6073 370.778 38.2802 371.572 36.2635L382.441 8.56183H382.451C382.848 7.65273 383.474 7.2452 384.383 7.2452C385.291 7.2452 385.917 7.64228 386.262 8.56183L397.924 39.6073H405.379L392.401 5.30159H392.412Z" fill="white"/>
<path d="M418.316 9.07386C418.316 7.70498 419.119 6.84812 420.644 6.84812C421.834 6.84812 422.523 7.36014 423.035 8.50958L434.248 33.1495C435.846 37.5488 438.289 40.297 443.645 40.297C449.565 40.297 452.468 36.9218 452.468 31.8329V1.00685H445.691V31.5403C445.691 32.8569 444.835 33.7138 443.415 33.7138C442.162 33.7138 441.421 33.0241 440.972 32.115L429.759 7.47509C428.161 3.07585 425.77 0.327637 420.425 0.327637C414.452 0.327637 411.602 3.70282 411.602 8.72903V39.6073H418.316V9.07386Z" fill="white"/>
<path d="M496.298 20.3384C496.298 7.30789 490.201 1.00684 478.998 1.00684H465.456C463.295 1.00684 462.271 2.03088 462.271 4.15213V36.462C462.271 38.5832 463.295 39.6073 465.456 39.6073H478.998C490.274 39.6073 496.298 33.3167 496.298 20.3384ZM475.249 25.1034L471.491 21.3311C471.063 20.9027 470.749 20.3802 470.572 19.8368C470.259 18.8755 470.332 17.7992 470.791 16.8901C470.969 16.5452 471.198 16.2213 471.491 15.9287C472.013 15.3958 472.681 15.0405 473.401 14.8942C473.652 14.842 473.923 14.8106 474.185 14.8106C475.197 14.8106 476.158 15.2077 476.878 15.9287L478.674 17.726L480.47 15.9287C481.19 15.2077 482.14 14.8106 483.164 14.8106C483.435 14.8106 483.696 14.842 483.957 14.8942C484.667 15.0405 485.335 15.3958 485.868 15.9287C486.16 16.2213 486.39 16.5348 486.567 16.8901C487.037 17.7992 487.11 18.8755 486.787 19.8368C486.609 20.3907 486.296 20.9027 485.868 21.3311L482.109 25.1034L478.695 28.5308L475.281 25.1034H475.249Z" fill="white"/>
<path fill-rule="evenodd" clip-rule="evenodd" d="M3.90727 57.7479C4.00124 57.7479 4.09521 57.7479 4.17873 57.7583C9.61842 57.9046 12.3644 61.1857 12.3644 66.003V88.3858C12.3644 89.6816 13.1474 90.5175 14.2646 90.5175C15.2669 90.5175 16.05 89.901 16.3841 88.9501L25.5407 64.7699C26.992 60.4543 29.3934 57.7583 34.4155 57.7583H34.4259C40.0118 57.7583 42.8099 61.0708 42.8099 66.003V88.3858C42.8099 89.6816 43.593 90.5175 44.7101 90.5175C45.7125 90.5175 46.4955 89.901 46.8296 88.9501L55.9863 64.7699C57.4375 60.4543 59.8389 57.7583 64.861 57.7583C70.4468 57.7583 73.245 61.0708 73.245 66.003L73.2137 84.7494C73.5373 87.8738 75.4689 89.6711 79.4156 89.6711H86.1186C90.368 89.6711 92.3204 87.4767 92.3204 83.7253V58.4062H98.8042V84.2164C98.8042 92.179 94.6174 96.2752 86.5675 96.2752H78.6325C70.5826 96.2752 66.4584 92.179 66.4584 84.2164L66.6046 66.3165C66.6046 64.9685 65.8216 64.1325 64.7044 64.1325C63.7543 64.1325 62.9712 64.8013 62.6371 65.7522L53.4805 89.9323C52.0292 94.248 49.5651 96.944 44.5431 96.944C39.0199 96.944 36.2217 93.6315 36.2217 88.6471V84.7285H36.1591V66.306C36.1591 64.958 35.376 64.122 34.2588 64.122C33.3087 64.122 32.5257 64.7908 32.1915 65.7417L23.0349 89.9219C21.5836 94.2375 19.1196 96.9335 14.0975 96.9335C8.57433 96.9335 5.77619 93.621 5.77619 88.6366V66.306C5.77619 64.958 5.02445 64.122 3.78198 64.122V63.9549C2.12189 63.8922 0.795898 62.5233 0.795898 60.8305C0.795898 59.1376 2.18453 57.7061 3.90727 57.7061V57.7479ZM116.178 74.0282H125.021C135.295 74.0282 137.696 79.7545 137.696 85.1987C137.696 91.5938 134.293 96.3065 125.689 96.3065H104.682V89.692H125.909C129.49 89.692 131.098 87.7275 131.098 84.9793C131.098 82.5132 129.814 80.2665 125.178 80.2665H116.407C106.353 80.2665 104.004 74.5924 104.004 69.3259C104.004 63.0457 107.355 58.4375 115.729 58.4375H134.825V65.0521H115.499C112.095 65.0521 110.582 66.9016 110.582 69.5349C110.582 71.8338 111.751 74.0177 116.167 74.0177L116.178 74.0282ZM152.147 58.4271H145.558V96.2961H152.147V58.4271ZM177.455 65.0521C170.188 65.0521 167.014 68.6989 167.014 77.3929C167.014 86.0451 170.147 89.692 177.455 89.692H192.031V96.3065H177.455C166.451 96.3065 160.416 90.1309 160.416 77.4034C160.416 64.6759 166.503 58.4375 177.455 58.4375H192.031V65.0521H177.455ZM217.945 71.4994V96.2961H224.533V81.3115H247.273V75.0313H224.533V71.4471C224.533 67.9152 226.318 65.0521 232.301 65.0521H247.492V58.4375H231.852C221.86 58.4375 217.945 63.9339 217.945 71.5098V71.4994ZM266.975 80.3083C263.175 80.3083 261.222 81.8235 261.222 84.9061C261.222 87.8738 263.06 89.6711 266.923 89.6711H286.019V96.2856H266.923C257.996 96.2856 254.352 91.855 254.352 85.9615C254.352 81.6459 256.305 78.72 259.771 77.2675C256.252 75.8046 254.467 72.8892 254.467 68.7407C254.467 62.68 258.215 58.4166 267.09 58.4166H285.967V65.0312H267.09C263.122 65.0312 261.389 66.8807 261.389 69.7961C261.389 72.8787 263.342 74.279 267.142 74.279H285.685V80.2874H266.975V80.3083ZM314.397 74.0282H305.575C301.158 74.0282 299.989 71.8443 299.989 69.5454C299.989 66.9016 301.503 65.0625 304.907 65.0625H324.233V58.448H305.136C296.752 58.448 293.411 63.0458 293.411 69.3364C293.411 74.6134 295.75 80.277 305.815 80.277H314.585C319.221 80.277 320.505 82.5236 320.505 84.9897C320.505 87.7379 318.887 89.7024 315.316 89.7024H294.09V96.317H315.097C323.7 96.317 327.104 91.6043 327.104 85.2092C327.104 79.765 324.703 74.0491 314.429 74.0491H314.408L314.397 74.0282ZM341.377 65.0521H330.372V58.4271H359.022V65.0521H348.017V96.2961H341.366V65.0521H341.377ZM372.365 58.4271H365.777V96.2961H372.365V58.4271ZM400.91 88.8978L412.917 58.4375H420.236L406.945 92.0954C405.546 95.6273 402.978 96.9753 399.073 96.9753C395.387 96.9753 392.537 95.7945 391.138 92.0954L378.515 58.4375H385.771L397.214 88.8978C397.548 89.7965 398.164 90.1936 399.052 90.1936C399.939 90.1936 400.503 89.7965 400.889 88.8978H400.91ZM439.667 57.7583C435.71 57.7583 433.131 59.1063 431.742 62.6382L418.503 96.2961H425.76L437.714 65.8358C438.111 64.9371 438.717 64.54 439.615 64.54C440.513 64.54 441.129 64.9371 441.452 65.8358L452.895 96.2961H460.214L447.477 62.6382C446.14 59.1063 443.572 57.7583 439.667 57.7583ZM470.384 83.1715C470.384 86.8184 472.169 89.7338 478.089 89.7338H492.738C492.779 89.7338 492.832 89.7338 492.873 89.7338C494.628 89.7338 496.194 91.343 496.194 93.0985C496.194 94.854 494.628 96.2856 492.873 96.2856H477.703C467.701 96.2856 463.796 90.7892 463.796 83.2133V58.4166H470.384V83.1611V83.1715Z" fill="url(#paint0_linear_4930_935)"/>
<defs>
<linearGradient id="paint0_linear_4930_935" x1="0.795898" y1="77.3616" x2="496.204" y2="77.3616" gradientUnits="userSpaceOnUse">
<stop stop-color="#3EFFA3"/>
<stop offset="0.47" stop-color="#56A7FF"/>
<stop offset="1" stop-color="#FB01FF"/>
</linearGradient>
</defs>
</svg>
