<?xml version="1.0" encoding="utf-8"?>
<!-- Generator: Adobe Illustrator 27.9.4, SVG Export Plug-In . SVG Version: 9.03 Build 54784)  -->
<svg version="1.1" id="Capa_1" xmlns="http://www.w3.org/2000/svg" xmlns:xlink="http://www.w3.org/1999/xlink" x="0px" y="0px"
	 viewBox="0 0 1920 464" style="enable-background:new 0 0 1920 464;" xml:space="preserve">
<style type="text/css">
	.st0{fill:#FFFFFF;}
	.st1{fill-rule:evenodd;clip-rule:evenodd;fill:url(#SVGID_1_);}
</style>
<g>
	<path class="st0" d="M1303.28,100.44c6.73,1.51,13.49,6.66,17.34,9.99c3.31,3.85,8.46,10.65,9.95,17.4c0,0,0.1,1.76,0.22,1.07
		c0.1,0.65,0.22-1.07,0.22-1.07c1.5-6.75,6.64-13.54,9.95-17.4c3.84-3.32,10.61-8.49,17.34-9.99c0,0,1.75-0.1,1.07-0.22
		c0.65-0.1-1.07-0.22-1.07-0.22c-6.73-1.51-13.49-6.66-17.34-9.98c-3.31-3.85-8.46-10.65-9.95-17.4c0,0-0.1-1.76-0.22-1.07
		c-0.1-0.65-0.22,1.07-0.22,1.07c-1.5,6.75-6.64,13.54-9.95,17.4c-3.84,3.32-10.61,8.49-17.34,9.98c0,0-1.75,0.1-1.07,0.22
		C1301.56,100.33,1303.28,100.44,1303.28,100.44z"/>
	<path class="st0" d="M108.8,200.58h47.13c39.22,0,60.2-21.85,60.2-66.97c0-45.11-21.18-67.2-60.2-67.2H108.8
		c-7.52,0-11.09,3.59-11.09,10.94v112.3c0,7.37,3.56,10.94,11.09,10.94V200.58z M121.1,92.25c0-1.78,0.8-2.39,2.57-2.39h32.29
		c25.93,0,36.84,12.91,36.84,43.53c0,30.62-10.91,43.72-36.84,43.72h-32.29c-1.77,0-2.57-0.59-2.57-2.39v-82.5V92.25z"/>
	<path class="st0" d="M240.32,164.01c0,20.86,12.89,36.57,44.55,36.57h67.73v-23.44h-67.73c-13.66,0-20.19-6.38-20.19-16.89
		c0-10.51,6.93-16.29,20.39-16.29h66.33v-21.27h-65.74c-13.48,0-20.39-4.97-20.39-15.89c0-10.33,6.14-16.89,20.19-16.89h66.95V66.45
		h-66.95c-31.47,0-44.76,15.11-44.76,36.57c0,14.7,6.35,25.03,18.81,30.22c-12.27,5.16-19.21,15.52-19.21,30.81l0.02-0.05H240.32z"
		/>
	<path class="st0" d="M490.88,177.14H439.2c-25.93,0-37.03-12.91-37.03-43.53c0-30.62,11.28-43.72,37.03-43.72h51.68V66.43H439.2
		c-38.82,0-60.41,22.07-60.41,67.19c0,45.12,21.38,66.97,60.41,66.97h51.68v-23.47V177.14z"/>
	<path class="st0" d="M539.77,160.24c0-10.94,6.93-16.29,20.39-16.29h66.33v-21.27h-65.74c-13.48,0-20.39-4.97-20.39-15.89
		c0-10.33,6.14-16.89,20.19-16.89h66.95V66.45h-66.95c-31.47,0-44.76,15.11-44.76,36.57c0,14.7,6.35,25.03,18.81,30.22
		c-12.27,5.16-19.2,15.52-19.2,30.81c0,20.86,12.89,36.57,44.55,36.57h67.73v-23.44h-67.73c-13.66,0-20.19-6.37-20.19-16.89
		l0.02-0.04L539.77,160.24z"/>
	<path class="st0" d="M676.33,94.46c0-4.77,2.79-7.75,8.12-7.75c4.16,0,6.53,1.8,8.31,5.76l39.01,85.66
		c5.54,15.3,14.06,24.85,32.68,24.85c20.6,0,30.7-11.72,30.7-29.42V66.41h-23.58v106.15c0,4.57-2.97,7.55-7.92,7.55
		c-4.36,0-6.93-2.39-8.51-5.57l-39.01-85.66c-5.55-15.3-13.86-24.84-32.49-24.84c-20.79,0-30.7,11.72-30.7,29.22V200.6h23.36V94.46
		h0.02H676.33z"/>
	<path class="st0" d="M858.86,200.58h23.58V89.89h39V66.41H819.85v23.48h39.01V200.58z"/>
	<path class="st0" d="M1041.84,200.58h25.93l-31.1-53.66c20.39-5.76,28.32-23.66,28.32-40.35c0-21.46-12.86-40.15-42.97-40.15
		h-72.49v23.44h73.28c12.88,0,18.62,8.15,18.62,17.7c0,9.55-5.35,18.69-18.62,18.69h-52.08c-14.65,0-21,6.16-21,21.27v53.08h23.36
		v-48.5c0-2.39,1.19-3.38,3.37-3.38h34.85l30.49,51.87l0.04,0.02V200.58z"/>
	<path class="st0" d="M1156.84,88.08c3.16,0,5.35,1.39,6.53,4.57l40.59,107.93h25.93l-45.17-119.25
		c-4.74-12.52-13.84-17.28-27.72-17.28c-13.88,0-23.18,4.76-28.13,17.28l-46.93,119.25h25.75l42.38-107.93
		c1.39-3.18,3.56-4.57,6.73-4.57H1156.84L1156.84,88.08z"/>
	<path class="st0" d="M1460.55,81.33c-4.75-12.53-13.85-17.28-27.73-17.28c-13.88,0-23.18,4.76-28.13,17.28l-34.79,88.39
		c-1.77,4.48-6.07,7.41-10.86,7.41h-64.61c-21,0-27.33-10.13-27.33-23.04V66.43h-23.36v87.84c0,26.84,13.85,46.3,49.31,46.3h78
		c7.5,0,14.25-4.6,17-11.62l37.82-96.31h0.05c1.39-3.18,3.56-4.57,6.73-4.57c3.16,0,5.35,1.39,6.53,4.57l40.59,107.93h25.93
		l-45.17-119.25H1460.55z"/>
	<path class="st0" d="M1550.67,94.46c0-4.77,2.79-7.75,8.12-7.75c4.15,0,6.53,1.8,8.31,5.76l39.01,85.66
		c5.54,15.3,14.06,24.85,32.68,24.85c20.6,0,30.7-11.72,30.7-29.42V66.41h-23.58v106.15c0,4.57-2.97,7.55-7.92,7.55
		c-4.36,0-6.93-2.39-8.52-5.57l-39.01-85.66c-5.55-15.3-13.87-24.84-32.48-24.84c-20.79,0-30.7,11.72-30.7,29.22V200.6h23.36V94.46
		H1550.67z"/>
	<path class="st0" d="M1822,133.6c0-45.31-21.2-67.19-60.2-67.19h-47.13c-7.52,0-11.09,3.57-11.09,10.94v112.3
		c0,7.37,3.56,10.94,11.09,10.94h47.13c39.22,0,60.2-21.85,60.2-66.97V133.6L1822,133.6z M1748.76,150.15l-13.09-13.13
		c-1.5-1.51-2.58-3.3-3.2-5.2c-1.1-3.35-0.85-7.07,0.78-10.25c0.61-1.21,1.41-2.32,2.42-3.34c1.83-1.84,4.13-3.09,6.64-3.61
		c0.89-0.19,1.81-0.29,2.74-0.29c3.53,0,6.85,1.38,9.36,3.9l6.25,6.26l6.25-6.26c2.51-2.52,5.83-3.9,9.36-3.9
		c0.93,0,1.86,0.09,2.74,0.29c2.48,0.53,4.78,1.76,6.64,3.61c1,1,1.81,2.12,2.43,3.34c1.63,3.18,1.88,6.9,0.77,10.25
		c-0.62,1.91-1.7,3.69-3.2,5.2l-13.09,13.13l-11.88,11.93l-11.89-11.93H1748.76z"/>
	
		<linearGradient id="SVGID_1_" gradientUnits="userSpaceOnUse" x1="-564.4438" y1="673.1653" x2="1159.1582" y2="673.1653" gradientTransform="matrix(1 0 0 -1 662.5 1005)">
		<stop  offset="0" style="stop-color:#3EFFA3"/>
		<stop  offset="0.4669" style="stop-color:#56A7FF"/>
		<stop  offset="1" style="stop-color:#FB01FF"/>
	</linearGradient>
	<path class="st1" d="M108.87,263.66c0.32,0,0.64,0.01,0.95,0.04c18.94,0.52,28.5,11.91,28.5,28.66v77.82c0,4.49,2.71,7.41,6.6,7.41
		c3.5,0,6.23-2.14,7.39-5.46l31.86-84.06c5.05-15.01,13.41-24.38,30.89-24.38h0.04c19.43,0,29.16,11.53,29.16,28.68v77.82
		c0,4.49,2.71,7.41,6.6,7.41c3.5,0,6.23-2.14,7.39-5.46l31.86-84.06c5.05-15.01,13.41-24.38,30.89-24.38
		c19.43,0,29.16,11.53,29.16,28.68l-0.1,65.18c1.14,10.87,7.84,17.11,21.56,17.11h23.31c14.78,0,21.58-7.62,21.58-20.68l0.02-0.04
		V266h22.55v89.73c0,27.68-14.57,41.93-42.56,41.93h-27.61c-27.99,0-42.37-14.22-42.37-41.93l0.5-62.21c0-4.67-2.71-7.6-6.6-7.6
		c-3.31,0-6.05,2.32-7.21,5.64l-31.86,84.06c-5.05,15.01-13.61,24.38-31.1,24.38c-19.23,0-28.95-11.51-28.95-28.86v-13.61h-0.23
		v-64.02c0-4.67-2.71-7.6-6.6-7.6c-3.31,0-6.04,2.32-7.2,5.64l-31.86,84.06c-5.05,15.01-13.62,24.38-31.1,24.38
		c-19.23,0-28.95-11.51-28.95-28.86v-77.62c0-4.67-2.63-7.6-6.94-7.6v-0.57c-5.78-0.22-10.39-4.99-10.39-10.85
		C98.06,268.52,102.9,263.66,108.87,263.66z M499.48,320.25h30.7h0.01l0.06,0.02c35.76,0,44.11,19.89,44.11,38.81
		c0,22.24-11.84,38.62-41.78,38.62h-73.08V374.7h73.84c12.44,0,18.07-6.83,18.07-16.38c0-8.58-4.46-16.38-20.61-16.38h-30.52
		c-34.99,0-43.15-19.71-43.15-38.04c0-21.84,11.65-37.84,40.8-37.84h66.46v23.01h-67.24c-11.85,0-17.11,6.42-17.11,15.59
		C480.05,312.65,484.13,320.25,499.48,320.25z M624.62,266.03H601.7v131.65h22.93V266.03z M712.66,289.04
		c-25.27,0-36.33,12.67-36.33,42.9v0.02c0,30.04,10.88,42.71,36.33,42.71h50.71v23.01h-50.71c-38.29,0-59.27-21.46-59.27-65.73
		c0-44.27,21.18-65.93,59.27-65.93h50.71v23.01H712.66z M853.53,311.46v86.2h22.93v-52.07h79.1v-21.84h-79.1v-12.47
		c0-12.29,6.23-22.24,27.02-22.24h52.87v-23.01h-54.41c-34.78,0-48.39,19.1-48.39,45.44v0.02L853.53,311.46z M1024.13,342.09
		c-13.21,0-20.01,5.26-20.01,15.99v-0.01l-0.02,0.05c0,10.32,6.41,16.57,19.82,16.57h66.46v23.01h-66.46
		c-31.08,0-43.72-15.41-43.72-35.88c0-15.01,6.8-25.17,18.85-30.23c-12.23-5.08-18.45-15.22-18.45-29.65
		c0-21.05,13.03-35.88,43.93-35.88h65.7v23.01h-65.7c-13.8,0-19.82,6.43-19.82,16.57c0,10.71,6.8,15.59,20.01,15.59h64.51v20.87
		H1024.13z M1189.13,320.25h-30.7c-15.36,0-19.43-7.6-19.43-15.6c0-9.17,5.26-15.59,17.11-15.59h67.24v-23.01h-66.46
		c-29.16,0-40.8,15.99-40.8,37.84c0,18.33,8.15,38.04,43.14,38.04h30.52c16.14,0,20.61,7.8,20.61,16.38
		c0,9.55-5.62,16.38-18.07,16.38h-73.84v23.01h73.08c29.94,0,41.78-16.38,41.78-38.62c0-18.92-8.35-38.81-44.11-38.81
		L1189.13,320.25L1189.13,320.25z M1282.99,289.04h-38.28v-23.02h99.69v23.02h-38.27v108.62h-23.13V289.04z M1390.82,266.02h-22.92
		v131.65h22.92V266.02z M1490.13,371.92l41.78-105.91h0.01h25.47l-46.24,117.01c-4.86,12.27-13.8,16.97-27.39,16.97
		c-12.83,0-22.74-4.09-27.6-16.97l-43.93-117.01h25.26l39.83,105.91c1.15,3.12,3.31,4.49,6.41,4.49
		C1486.82,376.41,1488.77,375.04,1490.13,371.92z M1624.97,263.69c-13.79,0.01-22.72,4.68-27.58,16.97l-46.06,117.01h25.26
		l41.58-105.91c1.37-3.12,3.5-4.49,6.6-4.49s5.26,1.37,6.41,4.49l39.83,105.91h25.45l-44.31-117.01
		C1647.51,268.36,1638.57,263.69,1624.97,263.69z M1624.97,263.69h0.02h-0.05H1624.97z M1731.85,352.04
		c0,12.67,6.22,22.82,26.82,22.82l-0.01,0.01h50.96c0.16-0.01,0.32-0.01,0.48-0.01c6.11,0,11.55,5.58,11.55,11.71
		c0,6.12-5.44,11.09-11.55,11.09c-0.01,0-0.01,0-0.01,0v0.01h-52.78c-34.8,0-48.39-19.1-48.39-45.43v-86.2h22.92V352.04z"/>
</g>
</svg>
