<?xml version="1.0" encoding="utf-8"?>
<!-- Generator: Adobe Illustrator 27.9.4, SVG Export Plug-In . SVG Version: 9.03 Build 54784)  -->
<svg version="1.1" id="Capa_1" xmlns="http://www.w3.org/2000/svg" xmlns:xlink="http://www.w3.org/1999/xlink" x="0px" y="0px"
	 viewBox="0 0 571 44" style="enable-background:new 0 0 571 44;" xml:space="preserve">
<style type="text/css">
	.st0{fill:url(#SVGID_1_);}
	.st1{fill:url(#SVGID_00000127724813937531291110000002209551237365809328_);}
	.st2{fill:url(#SVGID_00000005252621336366827090000013327749703474776764_);}
	.st3{fill:url(#SVGID_00000144326094602995831190000009585980071532163982_);}
	.st4{fill:url(#SVGID_00000129920103138837796430000001260791195218163130_);}
	.st5{fill:url(#SVGID_00000033327415810626744540000007441534301201165494_);}
	.st6{fill:url(#SVGID_00000096750819780032542500000012689796243950506881_);}
	.st7{fill:url(#SVGID_00000009585152739247548280000015393473148892044940_);}
	.st8{fill:url(#SVGID_00000077290648070293285780000000705583815244277385_);}
</style>
<g>
	<linearGradient id="SVGID_1_" gradientUnits="userSpaceOnUse" x1="567.8084" y1="22.0892" x2="12.4833" y2="22.0892">
		<stop  offset="0" style="stop-color:#3EFFA3"/>
		<stop  offset="0.5" style="stop-color:#56A7FF"/>
		<stop  offset="1" style="stop-color:#FB01FF"/>
	</linearGradient>
	<polygon class="st0" points="471.7,39.4 486.5,39.4 502.3,4.8 487.5,4.8 	"/>
	
		<linearGradient id="SVGID_00000111183224591802858490000015346848162432541103_" gradientUnits="userSpaceOnUse" x1="567.8084" y1="24.6545" x2="12.4833" y2="24.6545">
		<stop  offset="0" style="stop-color:#3EFFA3"/>
		<stop  offset="0.5" style="stop-color:#56A7FF"/>
		<stop  offset="1" style="stop-color:#FB01FF"/>
	</linearGradient>
	<path style="fill:url(#SVGID_00000111183224591802858490000015346848162432541103_);" d="M554.8,39.4h4.4c3.5,0,6.7-1.4,9-3.7V9.9
		L554.8,39.4z"/>
	
		<linearGradient id="SVGID_00000107569540559422398500000005206314103893118366_" gradientUnits="userSpaceOnUse" x1="567.8084" y1="22.0892" x2="12.4833" y2="22.0892">
		<stop  offset="0" style="stop-color:#3EFFA3"/>
		<stop  offset="0.5" style="stop-color:#56A7FF"/>
		<stop  offset="1" style="stop-color:#FB01FF"/>
	</linearGradient>
	<polygon style="fill:url(#SVGID_00000107569540559422398500000005206314103893118366_);" points="444,39.4 458.8,39.4 474.6,4.8 
		459.7,4.8 	"/>
	
		<linearGradient id="SVGID_00000029036294208292881540000012418965514317594281_" gradientUnits="userSpaceOnUse" x1="567.8084" y1="22.0892" x2="12.4833" y2="22.0892">
		<stop  offset="0" style="stop-color:#3EFFA3"/>
		<stop  offset="0.5" style="stop-color:#56A7FF"/>
		<stop  offset="1" style="stop-color:#FB01FF"/>
	</linearGradient>
	<polygon style="fill:url(#SVGID_00000029036294208292881540000012418965514317594281_);" points="527.1,39.4 542,39.4 557.8,4.8 
		542.9,4.8 	"/>
	
		<linearGradient id="SVGID_00000130617034752048372970000001032227545517136004_" gradientUnits="userSpaceOnUse" x1="567.8084" y1="22.0892" x2="12.4833" y2="22.0892">
		<stop  offset="0" style="stop-color:#3EFFA3"/>
		<stop  offset="0.5" style="stop-color:#56A7FF"/>
		<stop  offset="1" style="stop-color:#FB01FF"/>
	</linearGradient>
	<polygon style="fill:url(#SVGID_00000130617034752048372970000001032227545517136004_);" points="499.4,39.4 514.3,39.4 530,4.8 
		515.2,4.8 	"/>
	
		<linearGradient id="SVGID_00000163035359040311480210000001206669054812869512_" gradientUnits="userSpaceOnUse" x1="567.8084" y1="22.0892" x2="12.4833" y2="22.0892">
		<stop  offset="0" style="stop-color:#3EFFA3"/>
		<stop  offset="0.5" style="stop-color:#56A7FF"/>
		<stop  offset="1" style="stop-color:#FB01FF"/>
	</linearGradient>
	<polygon style="fill:url(#SVGID_00000163035359040311480210000001206669054812869512_);" points="360.8,39.4 375.7,39.4 391.4,4.8 
		376.6,4.8 	"/>
	
		<linearGradient id="SVGID_00000010998012153505088180000001069590265340875409_" gradientUnits="userSpaceOnUse" x1="567.8084" y1="22.0892" x2="12.4833" y2="22.0892">
		<stop  offset="0" style="stop-color:#3EFFA3"/>
		<stop  offset="0.5" style="stop-color:#56A7FF"/>
		<stop  offset="1" style="stop-color:#FB01FF"/>
	</linearGradient>
	<path style="fill:url(#SVGID_00000010998012153505088180000001069590265340875409_);" d="M2.7,32.3c2.1,4.2,6.5,7.2,11.5,7.2h333.6
		l15.8-34.7H2.7V32.3z M83.3,26.8L83.3,26.8l-0.5,1.2c-0.6,1.4-1.7,2.7-3.1,3.6L79.3,32c-0.5,0.3-0.9,0-0.7-0.5l1.2-2.8
		c0.3-0.6,0.7-1.1,1.2-1.5l1.4-0.9C83,25.9,83.5,26.3,83.3,26.8z M131.9,21.1c0-2.1,0.8-4.1,2.3-5.5c2.3-2.3,5.7-2.9,8.7-1.6
		c3.6-2.7,5.9-3.5,7-2.5c0.3,0.3,0.4,0.7,0.4,1.2c0,1.6-1.7,4.2-3.1,6.1c0.2,0.8,0.4,1.6,0.4,2.4l0,0c0,2.1-0.8,4.1-2.3,5.5
		c-1.5,1.5-3.5,2.3-5.5,2.3c-0.8,0-1.6-0.1-2.4-0.4c-2.7,2.1-4.8,3.1-6.1,3.1c-0.5,0-0.9-0.1-1.2-0.4c-1.1-1.1-0.2-3.4,2.5-7
		C132.1,23.2,131.9,22.2,131.9,21.1z M107.6,19c-0.4-0.6,0.3-1.3,0.9-0.9l0.9,0.5l1.5-6.2l1.5,6.2l0.9-0.5c0.6-0.4,1.3,0.3,0.9,0.9
		l-0.5,0.9l6.2,1.5l-6.2,1.5l0.5,0.9c0.4,0.6-0.3,1.3-0.9,0.9l-0.9-0.5l-1.5,6.2l-1.5-6.2l-0.9,0.5c-0.6,0.4-1.3-0.3-0.9-0.9
		l0.5-0.9l-6.2-1.5l6.2-1.5L107.6,19z M90.3,11.5l2.3-0.1c0.4,0,0.7,0.3,0.6,0.8l-0.7,2.2c-1,3.2-3.3,6.1-6.3,8.1l-6.3,4.2h0
		c-0.4,0.3-0.8,0.2-1.1-0.1l-3.5-4.8c-0.2-0.3-0.1-0.8,0.2-1.1l5.6-5.2C83.8,13.2,87.1,11.7,90.3,11.5z M70.6,20.1l0.3-0.3
		c1.2-1.1,2.7-1.9,4.2-2.1l1.3-0.2c0.6-0.1,0.8,0.6,0.3,1l-1.2,1.2c-0.5,0.5-1.1,0.8-1.8,0.9h0l-2.9,0.4
		C70.4,21,70.2,20.5,70.6,20.1z M49.4,20.6l-0.3-0.3c-0.3-0.3-0.6-0.4-1-0.3c-0.5,0.1-1.1,0.1-1.6,0c-1.7-0.4-3.1-1.8-3.3-3.6
		c-0.4-2.8,2.1-5.2,4.9-4.7c1.8,0.3,3.2,1.8,3.4,3.5c0.1,0.6,0.1,1.1-0.1,1.7c-0.1,0.4,0,0.8,0.3,1.1l0.1,0.1c0.4,0.4,1.1,0.4,1.5,0
		l0.3-0.3c0.3-0.3,0.4-0.6,0.3-1c-0.1-0.6-0.2-1.3,0-2c0.4-1.6,1.8-2.9,3.5-3.1c2.8-0.4,5.2,2,4.8,4.8c-0.2,1.7-1.5,3.1-3.1,3.5
		c-0.7,0.2-1.4,0.2-2,0c-0.4-0.1-0.7,0-1,0.3l-0.3,0.3c-0.4,0.4-0.4,1.1,0,1.5l0.3,0.3c0.3,0.3,0.6,0.4,1,0.3c0.6-0.1,1.3-0.2,2,0
		c1.6,0.4,2.9,1.8,3.1,3.5c0.4,2.8-2,5.2-4.8,4.8c-1.7-0.2-3-1.5-3.5-3.1c-0.2-0.7-0.2-1.3,0-2c0.1-0.4,0-0.8-0.3-1.1v0l-0.3-0.3
		c-0.4-0.4-1.1-0.4-1.5,0l-0.1,0.1c-0.3,0.3-0.4,0.7-0.3,1.1c0.1,0.5,0.2,1.1,0.1,1.7c-0.3,1.8-1.7,3.2-3.4,3.5
		c-2.9,0.5-5.3-1.9-4.9-4.7c0.2-1.8,1.6-3.2,3.4-3.6c0.6-0.1,1.1-0.1,1.6,0c0.4,0.1,0.8,0,1-0.3l0.3-0.3
		C49.8,21.7,49.8,21,49.4,20.6z"/>
	
		<linearGradient id="SVGID_00000180329457991088955740000007469261111190804413_" gradientUnits="userSpaceOnUse" x1="567.8084" y1="22.0892" x2="12.4833" y2="22.0892">
		<stop  offset="0" style="stop-color:#3EFFA3"/>
		<stop  offset="0.5" style="stop-color:#56A7FF"/>
		<stop  offset="1" style="stop-color:#FB01FF"/>
	</linearGradient>
	<polygon style="fill:url(#SVGID_00000180329457991088955740000007469261111190804413_);" points="416.3,39.4 431.1,39.4 446.9,4.8 
		432,4.8 	"/>
	
		<linearGradient id="SVGID_00000060736874250722624670000011982349176728020620_" gradientUnits="userSpaceOnUse" x1="567.8084" y1="22.0892" x2="12.4833" y2="22.0892">
		<stop  offset="0" style="stop-color:#3EFFA3"/>
		<stop  offset="0.5" style="stop-color:#56A7FF"/>
		<stop  offset="1" style="stop-color:#FB01FF"/>
	</linearGradient>
	<polygon style="fill:url(#SVGID_00000060736874250722624670000011982349176728020620_);" points="388.5,39.4 403.4,39.4 419.1,4.8 
		404.3,4.8 	"/>
</g>
</svg>
