<svg width="460" height="218" viewBox="0 0 460 218" fill="none" xmlns="http://www.w3.org/2000/svg">
<path d="M445.699 173.686L405.951 131.122L409.887 127.455L410.035 127.293C414.406 122.487 416.039 116.361 414.517 110.485C412.61 103.113 409.143 99.8471 404.163 96.9662L401.593 95.4815C400.303 94.6793 398.965 93.9421 397.464 93.2128C401.59 86.7922 400.076 81.2806 399.52 79.749C398.081 75.3756 395.001 71.7837 391.054 69.8797C389.751 69.2519 388.338 68.7805 386.757 68.4549C386.652 66.0403 385.89 63.6856 384.535 61.6513C382.006 57.8615 377.943 55.4912 373.088 54.9806C370.838 54.7436 368.725 54.7124 367.138 54.7124C366.381 54.7124 365.624 54.7202 364.872 54.7306H364.781C364.123 54.7384 363.47 54.7462 362.843 54.7488C362.843 54.7488 361.301 54.7436 360.731 54.7436C357.861 54.7436 354.976 54.7905 352.12 54.8817L351.589 53.7799C349.464 49.3753 345.421 46.4059 340.775 45.838C336.084 45.2624 331.482 47.0805 328.467 50.7037C326.856 52.639 325.826 54.9416 325.446 57.3692C322.028 57.9422 318.74 58.6064 315.623 59.3592C314.007 59.6952 300.982 62.675 292.24 73.008V62.141C292.24 52.8604 284.701 45.3119 275.432 45.3119H270.869L89.8077 46.0647C87.7786 46.0647 85.7884 46.4267 83.9205 47.1274C78.6862 43.6787 72.6325 41.8737 66.2171 41.8737C48.3914 41.8737 33.8905 56.3429 33.8905 74.1254C33.8905 75.6361 33.9946 77.1364 34.2053 78.6211C27.2852 81.4655 21.6477 86.9511 18.3256 94.2339L2.09205 129.76C-0.683784 135.821 -0.192101 142.794 3.41101 148.412C3.64255 148.772 3.8845 149.121 4.13164 149.449L6.37675 152.431L0.343815 186.394C-0.673382 192.083 0.869323 197.892 4.5739 202.325C4.89128 202.705 5.23209 203.078 5.58329 203.429L13.2578 211.113C16.9234 215.033 22.0926 217.279 27.4647 217.279H419.994C425.283 217.279 430.41 215.085 434.063 211.267L445.364 199.46C452.146 192.323 452.297 181.008 445.705 173.696L445.699 173.686Z" fill="#FCFCFC"/>
<path d="M433.313 184.962L425.47 176.262C424.944 175.634 424.127 175.327 423.31 175.327H404.715C404.699 175.327 404.689 175.314 404.691 175.298L407.941 157.044C408.079 156.271 407.868 155.474 407.363 154.872L399.402 146.901C398.898 146.3 398.154 145.951 397.368 145.951H383.159C381.873 145.951 380.77 146.875 380.547 148.141L374.758 180.713C374.756 180.737 374.724 180.742 374.711 180.721L366.03 164.061C364.568 161.259 362.848 158.599 360.892 156.117L356.066 149.733C353.821 146.654 349.258 145.211 345.338 145.211C340.873 145.211 336.927 147.214 333.272 151.332L332.811 151.848L328.402 148.173C326.679 146.737 324.51 145.951 322.267 145.951H309.049C308.294 145.951 307.576 146.271 307.074 146.834L289.269 166.716C289.269 166.716 289.238 166.726 289.23 166.71L283.218 155.435L279.62 148.532C279.613 148.516 279.623 148.496 279.641 148.496H290.094C290.828 148.496 291.533 148.193 292.037 147.659L303.177 135.894C303.697 135.344 304.01 134.607 303.955 133.854C303.955 133.849 303.952 133.841 303.947 133.839L295.367 124.326C294.847 123.701 294.038 123.386 293.226 123.386H265.546C265.528 123.386 265.515 123.368 265.523 123.352C266.392 121.094 268.723 119.304 274.789 119.304H295.201C295.937 119.304 296.642 119 297.149 118.463L308.411 106.515C309.166 105.708 309.176 104.457 308.437 103.637L300.602 94.9528C300.079 94.3224 299.267 94.0098 298.45 94.0098H268.983C260.338 94.0098 252.273 96.6667 246.448 101.366C246.438 101.373 246.425 101.373 246.414 101.366L240.569 94.9606C240.064 94.3589 239.32 94.0124 238.537 94.0124H182.198C174.441 94.0124 168.556 95.6013 164.646 98.7426C164.635 98.7504 164.622 98.7504 164.615 98.7426L159.391 94.0203C159.391 94.0203 159.38 94.0151 159.375 94.0151H145.051C143.766 94.0151 142.663 94.9397 142.437 96.2082L138.321 119.403C137.824 122.047 136.747 124.071 127.949 124.071C127.202 124.071 126.502 124.066 125.841 124.053C125.826 124.053 125.815 124.04 125.818 124.024L129.174 105.109C129.312 104.335 129.099 103.541 128.596 102.936L120.636 94.9658C120.131 94.3641 119.387 94.0151 118.601 94.0151H104.413C103.114 94.0151 102.001 94.9475 101.775 96.2291L100.51 103.356L95.4504 98.477C95.0471 98.042 94.3942 97.3309 93.9909 96.8933C92.2531 94.6037 89.5215 93.2753 86.4361 93.2753C82.2866 93.2753 78.7668 95.2002 75.658 99.1802L66.9324 110.563C66.1728 111.542 65.4912 112.42 64.8772 113.214C64.8668 113.23 64.2399 113.962 64.232 113.944L59.8719 106.32L55.327 98.589C53.8493 96.078 51.4377 94.187 48.5865 93.5957C47.5172 93.3743 46.3908 93.2727 45.2279 93.2727C40.2902 93.2727 35.9847 96.2473 33.7109 101.23L17.4722 136.766C17.095 137.59 17.1626 138.545 17.6517 139.309L24.3116 148.149L16.9909 189.353C16.853 190.127 17.0664 190.921 17.5685 191.526L25.5291 199.496C26.0338 200.098 26.7779 200.447 27.5635 200.447H41.8147C43.1128 200.447 44.2237 199.514 44.4526 198.235L46.6379 185.933C46.6379 185.933 46.6509 185.912 46.6613 185.912H66.1312C66.6775 185.912 67.2082 185.743 67.6479 185.436C67.6661 185.423 67.6869 185.436 67.6843 185.459L66.9923 189.356C66.8544 190.129 67.0677 190.924 67.5698 191.528L75.5305 199.499C76.0352 200.1 76.7792 200.449 77.5649 200.449H166.938C175.668 200.449 181.821 198.246 185.398 193.906L185.442 193.896L188.234 190.833L196.889 199.501C197.394 200.103 198.138 200.449 198.921 200.449H211.312C212.527 200.449 213.718 200.113 214.756 199.478C215.285 199.152 215.766 198.756 216.185 198.298L229.054 184.167L228.139 189.361C228.003 190.135 228.214 190.929 228.719 191.531L236.68 199.501C237.184 200.103 237.928 200.449 238.711 200.449H251.087C252.273 200.449 253.436 200.129 254.456 199.522C254.984 199.207 255.465 198.821 255.887 198.373L270.476 182.841L272.443 186.637C273.499 188.621 274.581 189.887 276.16 191.481L281.306 196.633C284.046 199.168 287.019 201.189 290.992 201.189C295.419 201.189 299.33 199.204 302.935 195.131L303.456 194.55L308.398 199.509C308.916 200.134 309.723 200.449 310.534 200.449H420.087C420.818 200.449 421.515 200.15 422.02 199.624L433.28 187.861C434.044 187.056 434.06 185.798 433.319 184.975L433.313 184.962Z" fill="url(#paint0_linear_75_4254)"/>
<path d="M400.482 118.348C395.459 123.87 380.258 126.832 372.955 127.926C370.32 128.322 367.677 128.647 365.023 128.924L372.399 157.503C372.737 158.818 370.846 159.435 370.344 158.175L349.432 105.494C349.282 105.114 348.769 105.056 348.538 105.392L341.097 116.184C340.759 116.674 339.999 116.288 340.194 115.725L344.724 102.71C344.851 102.34 344.534 101.97 344.149 102.04L315.423 107.307C314.837 107.414 314.575 106.604 315.108 106.346L340.998 93.8222C341.35 93.6529 341.389 93.1633 341.066 92.9419L330.342 85.5288C329.853 85.1902 330.238 84.4296 330.8 84.625L343.407 89.0243C343.777 89.152 344.149 88.8342 344.076 88.4513L340.868 70.9163C335.181 71.7837 329.575 72.9584 324.198 74.503C319.59 75.8262 310.93 78.7383 308.326 82.9527C306.473 85.9508 308.177 87.9772 310.459 89.8787C311.094 90.4075 312.038 90.7565 312.327 91.6239C309.554 91.5223 306.682 90.2303 304.434 88.6519C292.118 80.0172 312.543 73.8232 318.883 72.2916C325.855 70.6063 333.15 69.528 340.494 68.8742L338.8 59.6196C338.693 59.0335 339.502 58.7704 339.76 59.3044L352.494 85.6955C352.664 86.0471 353.153 86.0862 353.374 85.7632L360.96 74.7635C361.298 74.2738 362.058 74.6593 361.863 75.2219L357.573 87.5423C357.445 87.9121 357.763 88.282 358.145 88.2117L386.429 83.0257C387.014 82.9189 387.277 83.7289 386.744 83.9868L360.447 96.7057C360.096 96.875 360.057 97.3647 360.38 97.5861L371.707 105.416C372.196 105.755 371.811 106.515 371.249 106.32L358.881 102.004C358.496 101.868 358.116 102.22 358.22 102.613L364.448 126.743C368.855 126.009 373.229 125.076 377.542 123.87C382.474 122.492 391.601 119.612 394.382 115.077C396.13 112.225 394.374 109.669 391.941 108.031C391.223 107.549 390.074 107.315 390.019 106.317C390.063 106.166 390.378 105.96 390.531 105.95C390.714 105.937 392.077 106.429 392.386 106.533C396.952 108.073 405.602 112.696 400.467 118.343L400.482 118.348ZM336.758 129.197L328.873 129.293L328.701 129.51C329.049 129.588 329.258 129.817 329.63 129.877C332.999 130.4 337.263 129.783 340.728 130.215C345.267 130.169 349.817 130.031 354.36 129.778L353.925 128.147C348.22 128.718 342.484 129.03 336.758 129.2V129.197ZM369.253 68.8898C370.749 68.8898 372.253 69.0226 373.749 69.0305C373.374 68.4652 372.596 68.2621 371.946 68.1943C368.91 67.874 365.666 68.0485 362.625 68.0329C357.695 68.0042 352.658 68.1032 347.606 68.3715L348.126 69.976C355.216 69.2154 362.344 68.8846 369.253 68.8898ZM357.019 45.5723C356.55 44.1371 357.333 42.5925 358.767 42.1236C357.333 42.5925 355.791 41.8085 355.322 40.3733C355.791 41.8085 355.008 43.3531 353.574 43.8219C355.008 43.3531 356.55 44.1371 357.019 45.5723ZM318.396 45.3066C317.938 43.9027 318.703 42.3919 320.105 41.9335C318.703 42.3919 317.194 41.6261 316.736 40.2222C317.194 41.6261 316.429 43.1369 315.027 43.5953C316.429 43.1369 317.938 43.9027 318.396 45.3066ZM306.908 49.172C306.44 47.7394 307.22 46.1974 308.654 45.7286C307.223 46.1974 305.683 45.416 305.214 43.9808C305.683 45.4134 304.902 46.9554 303.469 47.4243C304.9 46.9554 306.44 47.7368 306.908 49.172ZM330.002 41.5688C329.554 40.2013 330.301 38.7297 331.667 38.2843C330.301 38.7323 328.831 37.9847 328.386 36.6172C328.834 37.9847 328.087 39.4564 326.721 39.9018C328.087 39.4538 329.557 40.2013 330.002 41.5688ZM402.941 68.9054C402.506 67.5718 403.232 66.1392 404.564 65.7016C403.232 66.1366 401.801 65.4099 401.364 64.0763C401.799 65.4099 401.073 66.8425 399.741 67.2801C401.073 66.8451 402.504 67.5718 402.941 68.9054ZM341.495 37.6852C341.071 36.3828 341.779 34.9841 343.08 34.5595C341.779 34.9841 340.382 34.2756 339.958 32.9732C340.382 34.2756 339.674 35.6743 338.373 36.0989C339.674 35.6743 341.071 36.3828 341.495 37.6852ZM383.804 49.2892C383.388 48.0129 384.082 46.6428 385.357 46.2261C384.082 46.6428 382.714 45.9474 382.298 44.6711C382.714 45.9474 382.019 47.3175 380.744 47.7342C382.019 47.3175 383.388 48.0129 383.804 49.2892ZM368.541 41.6027C368.13 40.3394 368.816 38.9823 370.078 38.5682C368.816 38.9797 367.461 38.2921 367.047 37.0288C367.458 38.2921 366.772 39.6491 365.51 40.0633C366.772 39.6518 368.127 40.3394 368.541 41.6027ZM399.025 56.9888C398.638 55.7985 399.286 54.5169 400.474 54.1262C399.286 54.5143 398.006 53.8657 397.615 52.6754C398.003 53.8657 397.355 55.1473 396.166 55.538C397.355 55.1499 398.635 55.7985 399.025 56.9888ZM422.062 88.0163C421.677 86.839 422.319 85.5731 423.495 85.1876C422.319 85.5731 421.055 84.9297 420.67 83.7524C421.055 84.9297 420.413 86.1956 419.237 86.5811C420.413 86.1956 421.677 86.839 422.062 88.0163ZM425.858 99.5839C425.473 98.4014 426.115 97.1276 427.299 96.7421C426.118 97.1276 424.846 96.4843 424.461 95.2991C424.846 96.4817 424.203 97.7554 423.019 98.1409C424.2 97.7554 425.473 98.3988 425.858 99.5839ZM429.518 111.133C429.143 109.987 429.768 108.758 430.912 108.383C429.768 108.758 428.54 108.133 428.165 106.987C428.54 108.133 427.915 109.362 426.771 109.737C427.915 109.362 429.143 109.987 429.518 111.133ZM425.556 138.241C425.15 136.998 425.826 135.659 427.07 135.253C425.829 135.659 424.492 134.982 424.086 133.737C424.492 134.98 423.815 136.318 422.572 136.725C423.813 136.318 425.15 136.996 425.556 138.241ZM353.077 33.5593C352.703 32.4158 353.327 31.1838 354.469 30.8113C353.327 31.1864 352.096 30.5613 351.724 29.4178C352.099 30.5613 351.475 31.7933 350.333 32.1658C351.475 31.7907 352.705 32.4158 353.077 33.5593ZM418.222 76.2482C417.86 75.1411 418.464 73.9482 419.57 73.5861C418.464 73.9482 417.273 73.3439 416.911 72.2369C417.273 73.3439 416.669 74.5369 415.563 74.8989C416.669 74.5369 417.86 75.1411 418.222 76.2482ZM302.826 36.9402C302.475 35.8671 303.06 34.7132 304.132 34.3616C303.06 34.7132 301.908 34.1271 301.557 33.054C301.908 34.1271 301.322 35.281 300.251 35.6327C301.322 35.281 302.475 35.8671 302.826 36.9402ZM433.248 122.563C432.895 121.477 433.485 120.307 434.57 119.953C433.485 120.307 432.317 119.716 431.963 118.63C432.317 119.716 431.727 120.885 430.642 121.24C431.727 120.885 432.895 121.477 433.248 122.563ZM314.528 33.1295C314.171 32.0355 314.767 30.8608 315.857 30.504C314.764 30.8608 313.591 30.2643 313.235 29.1729C313.591 30.2669 312.995 31.4417 311.905 31.7985C312.998 31.4417 314.171 32.0381 314.528 33.1295ZM414.4 64.5555C414.062 63.5189 414.627 62.4066 415.662 62.068C414.627 62.4066 413.516 61.8414 413.178 60.8047C413.516 61.8414 412.951 62.9536 411.916 63.2922C412.951 62.9536 414.062 63.5189 414.4 64.5555ZM326.06 29.311C325.725 28.2795 326.287 27.1725 327.314 26.8339C326.284 27.1699 325.178 26.6073 324.84 25.5784C325.176 26.6099 324.614 27.7169 323.586 28.0555C324.617 27.7195 325.722 28.2821 326.06 29.311ZM379.883 37.4091C379.543 36.3672 380.112 35.2446 381.153 34.9033C380.112 35.2446 378.991 34.6741 378.65 33.6322C378.991 34.6741 378.421 35.7968 377.381 36.138C378.421 35.7968 379.543 36.3672 379.883 37.4091ZM291.26 40.7405C290.919 39.6934 291.489 38.5656 292.534 38.2244C291.489 38.5656 290.362 37.9951 290.021 36.948C290.362 37.9951 289.792 39.123 288.747 39.4642C289.792 39.123 290.919 39.6934 291.26 40.7405ZM395.188 45.2207C394.847 44.1788 395.417 43.0587 396.455 42.7175C395.414 43.0587 394.296 42.4883 393.955 41.449C394.296 42.4909 393.726 43.6109 392.688 43.9522C393.729 43.6109 394.847 44.1814 395.188 45.2207ZM364.493 29.5897C364.162 28.5765 364.714 27.4877 365.726 27.1569C364.714 27.4877 363.626 26.9355 363.296 25.9222C363.626 26.9355 363.075 28.0243 362.063 28.3551C363.075 28.0243 364.162 28.5765 364.493 29.5897ZM337.575 25.4195C337.26 24.4584 337.785 23.4217 338.745 23.1065C337.785 23.4217 336.75 22.8955 336.435 21.9344C336.75 22.8955 336.224 23.9322 335.265 24.2474C336.224 23.9322 337.26 24.4584 337.575 25.4195ZM436.979 133.945C436.675 133.016 437.182 132.018 438.111 131.713C437.182 132.018 436.186 131.51 435.881 130.58C436.186 131.51 435.678 132.508 434.75 132.812C435.678 132.508 436.675 133.016 436.979 133.945ZM410.498 52.7978C410.194 51.8679 410.701 50.8677 411.63 50.563C410.701 50.8677 409.702 50.3598 409.398 49.4299C409.702 50.3598 409.195 51.36 408.266 51.6648C409.195 51.36 410.194 51.8679 410.498 52.7978ZM433.428 83.5544C433.15 82.6975 433.615 81.778 434.471 81.4967C433.615 81.7754 432.697 81.3091 432.416 80.4522C432.694 81.3091 432.229 82.2286 431.373 82.5099C432.229 82.2312 433.147 82.6975 433.428 83.5544ZM437.229 95.0881C436.948 94.2234 437.419 93.2935 438.28 93.0122C437.416 93.2935 436.487 92.822 436.206 91.9599C436.487 92.8246 436.017 93.7545 435.155 94.0358C436.019 93.7545 436.948 94.226 437.229 95.0881ZM349.071 21.3223C348.792 20.4679 349.258 19.5485 350.111 19.2698C349.258 19.5485 348.34 19.0822 348.061 18.2279C348.34 19.0822 347.874 20.0017 347.021 20.2804C347.874 20.0017 348.792 20.4679 349.071 21.3223ZM440.902 106.705C440.629 105.867 441.084 104.965 441.922 104.692C441.084 104.965 440.184 104.509 439.911 103.671C440.184 104.509 439.729 105.411 438.891 105.684C439.729 105.411 440.629 105.867 440.902 106.705ZM440.673 145.279C440.413 144.482 440.848 143.622 441.644 143.362C440.848 143.622 439.989 143.187 439.729 142.39C439.989 143.187 439.555 144.047 438.759 144.307C439.555 144.047 440.413 144.482 440.673 145.279ZM429.651 71.9712C429.39 71.1715 429.825 70.3094 430.624 70.0489C429.825 70.3094 428.964 69.8744 428.704 69.0747C428.964 69.8744 428.529 70.7366 427.731 70.997C428.529 70.7366 429.39 71.1715 429.651 71.9712ZM391.291 33.0644C391.034 32.2778 391.463 31.4312 392.248 31.1734C391.463 31.4312 390.617 31.0015 390.36 30.2148C390.617 31.0015 390.188 31.848 389.402 32.1059C390.188 31.848 391.034 32.2778 391.291 33.0644ZM375.999 25.3466C375.744 24.5626 376.171 23.7186 376.954 23.4608C376.171 23.716 375.328 23.2889 375.071 22.5048C375.325 23.2889 374.899 24.1328 374.116 24.3907C374.899 24.1354 375.742 24.5626 375.999 25.3466ZM444.685 118.291C444.435 117.525 444.851 116.702 445.616 116.452C444.851 116.702 444.029 116.285 443.779 115.52C444.029 116.285 443.613 117.108 442.848 117.359C443.613 117.108 444.435 117.525 444.685 118.291ZM406.536 40.7353C406.304 40.0294 406.689 39.2689 407.397 39.037C406.692 39.2689 405.932 38.8834 405.701 38.1749C405.932 38.8808 405.547 39.6413 404.84 39.8732C405.545 39.6413 406.304 40.0268 406.536 40.7353ZM298.851 24.7345C298.617 24.0182 299.007 23.2472 299.722 23.0128C299.007 23.2472 298.237 22.8565 298.003 22.1402C298.237 22.8565 297.847 23.6275 297.131 23.8619C297.847 23.6275 298.617 24.0182 298.851 24.7345ZM310.521 20.9472C310.287 20.2283 310.677 19.4547 311.398 19.2177C310.68 19.4521 309.907 19.0614 309.671 18.3399C309.905 19.0588 309.515 19.8324 308.794 20.0694C309.512 19.835 310.285 20.2257 310.521 20.9472ZM425.785 60.1041C425.556 59.4008 425.938 58.6454 426.641 58.4162C425.938 58.6454 425.184 58.2625 424.955 57.5592C425.184 58.2625 424.801 59.0179 424.099 59.2471C424.801 59.0179 425.556 59.4008 425.785 60.1041ZM360.603 17.3527C360.38 16.6624 360.754 15.9227 361.441 15.6961C360.752 15.9201 360.013 15.545 359.787 14.8574C360.01 15.5476 359.636 16.2874 358.949 16.514C359.638 16.29 360.377 16.665 360.603 17.3527ZM322.098 16.9516C321.877 16.2769 322.246 15.5502 322.92 15.3288C322.246 15.5502 321.521 15.1803 321.3 14.5057C321.521 15.1803 321.151 15.9071 320.477 16.1285C321.151 15.9071 321.877 16.2769 322.098 16.9516ZM287.225 28.4045C287.001 27.7169 287.376 26.9772 288.062 26.7505C287.376 26.9745 286.637 26.5995 286.41 25.9118C286.634 26.5995 286.26 27.3392 285.573 27.5658C286.26 27.3418 286.998 27.7169 287.225 28.4045ZM275.645 31.9939C275.45 31.3922 275.778 30.7462 276.376 30.5482C275.775 30.7436 275.13 30.4154 274.933 29.8163C275.128 30.418 274.8 31.064 274.201 31.2619C274.802 31.0666 275.448 31.3948 275.645 31.9939ZM448.345 129.484C448.147 128.879 448.478 128.228 449.081 128.03C448.478 128.228 447.827 127.897 447.63 127.293C447.827 127.897 447.497 128.548 446.893 128.746C447.497 128.548 448.147 128.879 448.345 129.484ZM387.316 21.0384C387.139 20.4992 387.433 19.9183 387.972 19.7438C387.433 19.9209 386.853 19.6266 386.679 19.0874C386.855 19.6266 386.561 20.2075 386.023 20.382C386.561 20.2049 387.142 20.4992 387.316 21.0384ZM421.836 48.2031C421.659 47.6639 421.953 47.083 422.494 46.9059C421.955 47.083 421.375 46.7887 421.198 46.2469C421.375 46.7861 421.081 47.367 420.54 47.5441C421.079 47.367 421.659 47.6613 421.836 48.2031ZM448.577 90.6289C448.428 90.1782 448.676 89.6912 449.126 89.5453C448.676 89.6938 448.189 89.4463 448.043 88.9957C448.192 89.4463 447.945 89.9334 447.494 90.0793C447.945 89.9308 448.431 90.1782 448.577 90.6289ZM402.647 28.7848C402.483 28.2821 402.756 27.7429 403.258 27.5788C402.756 27.7429 402.217 27.4694 402.054 26.9667C402.217 27.4694 401.944 28.0086 401.442 28.1727C401.944 28.0086 402.483 28.2821 402.647 28.7848ZM372.04 13.0835C371.878 12.5912 372.146 12.0625 372.638 11.901C372.146 12.0625 371.618 11.7942 371.457 11.3019C371.618 11.7942 371.35 12.323 370.859 12.4845C371.35 12.323 371.878 12.5912 372.04 13.0835ZM345.119 9.18687C344.958 8.69197 345.228 8.158 345.723 7.99651C345.228 8.158 344.695 7.88711 344.534 7.39222C344.695 7.88711 344.425 8.42108 343.93 8.58258C344.425 8.42108 344.958 8.69197 345.119 9.18687ZM440.957 67.5406C440.816 67.1082 441.05 66.6445 441.482 66.5013C441.05 66.6419 440.587 66.4075 440.444 65.9751C440.585 66.4075 440.351 66.8711 439.919 67.0144C440.351 66.8737 440.814 67.1082 440.957 67.5406ZM444.716 79.0222C444.576 78.5924 444.81 78.1288 445.242 77.9855C444.812 78.1262 444.349 77.8917 444.206 77.4594C444.347 77.8891 444.112 78.3528 443.681 78.496C444.11 78.3554 444.573 78.5898 444.716 79.0222ZM264.016 35.5832C263.876 35.1508 264.11 34.6845 264.545 34.5439C264.113 34.6845 263.647 34.4501 263.507 34.0151C263.647 34.4475 263.413 34.9138 262.978 35.0544C263.41 34.9138 263.876 35.1482 264.016 35.5832ZM452.11 140.78C451.977 140.377 452.198 139.942 452.601 139.809C452.198 139.942 451.764 139.72 451.631 139.316C451.764 139.72 451.542 140.155 451.139 140.288C451.542 140.155 451.977 140.377 452.11 140.78ZM452.266 102.209C452.13 101.795 452.357 101.347 452.77 101.212C452.357 101.347 451.909 101.121 451.774 100.707C451.909 101.121 451.683 101.569 451.269 101.704C451.683 101.569 452.13 101.795 452.266 102.209ZM418.022 36.3594C417.91 36.0156 418.097 35.6483 418.438 35.5363C418.095 35.6483 417.728 35.4607 417.616 35.1195C417.728 35.4633 417.54 35.8306 417.2 35.9426C417.543 35.8306 417.91 36.0182 418.022 36.3594ZM437.086 55.6891C436.969 55.3322 437.164 54.9493 437.52 54.8321C437.164 54.9493 436.781 54.754 436.664 54.3971C436.781 54.754 436.586 55.1369 436.23 55.2541C436.586 55.1369 436.969 55.3322 437.086 55.6891ZM356.555 5.0141C356.449 4.68851 356.626 4.33947 356.951 4.23268C356.626 4.33947 356.277 4.16235 356.17 3.83676C356.277 4.16235 356.1 4.51139 355.775 4.61818C356.1 4.51139 356.449 4.68851 356.555 5.0141ZM318.084 4.80572C317.977 4.48274 318.154 4.1337 318.48 4.02691C318.157 4.1337 317.808 3.95658 317.702 3.63099C317.808 3.95398 317.631 4.30301 317.306 4.4098C317.629 4.30301 317.977 4.48013 318.084 4.80572ZM294.907 12.3907C294.8 12.0677 294.977 11.7187 295.302 11.6119C294.98 11.7187 294.631 11.5415 294.525 11.216C294.631 11.5389 294.454 11.888 294.129 11.9948C294.452 11.888 294.8 12.0651 294.907 12.3907ZM306.484 8.57997C306.38 8.2648 306.551 7.92618 306.866 7.82199C306.551 7.92618 306.213 7.75427 306.109 7.4391C306.213 7.75427 306.042 8.09289 305.727 8.19707C306.042 8.09289 306.38 8.2648 306.484 8.57997ZM456.004 113.642C455.9 113.326 456.072 112.988 456.386 112.884C456.072 112.988 455.733 112.816 455.629 112.501C455.733 112.816 455.562 113.155 455.247 113.259C455.562 113.155 455.9 113.326 456.004 113.642ZM432.364 198.102C432.291 197.878 432.413 197.636 432.637 197.561C432.413 197.634 432.171 197.511 432.096 197.287C432.169 197.511 432.047 197.753 431.823 197.829C432.047 197.756 432.289 197.878 432.364 198.102ZM383.481 8.86649C383.408 8.64248 383.531 8.40024 383.754 8.32471C383.531 8.39764 383.289 8.27522 383.213 8.05121C383.286 8.27522 383.164 8.51746 382.94 8.59299C383.164 8.52006 383.406 8.64248 383.481 8.86649ZM398.773 16.7197C398.698 16.4931 398.822 16.2483 399.049 16.1754C398.822 16.2509 398.578 16.1259 398.505 15.8993C398.581 16.1259 398.456 16.3707 398.229 16.4436C398.456 16.3681 398.7 16.4931 398.773 16.7197ZM333.514 13.021C333.334 12.4714 333.633 11.8828 334.182 11.703C333.633 11.8828 333.045 11.5832 332.866 11.0336C333.045 11.5832 332.746 12.1719 332.197 12.3516C332.746 12.1719 333.334 12.4714 333.514 13.021ZM444.373 156.367C444.193 155.817 444.492 155.226 445.041 155.046C444.492 155.226 443.902 154.927 443.722 154.377C443.902 154.927 443.603 155.518 443.054 155.698C443.603 155.518 444.193 155.817 444.373 156.367ZM283.242 15.967C283.169 15.7456 283.291 15.5085 283.51 15.4356C283.289 15.5085 283.052 15.3861 282.979 15.1673C283.052 15.3887 282.93 15.6258 282.711 15.6987C282.932 15.6258 283.169 15.7482 283.242 15.967ZM455.759 151.957C455.689 151.738 455.806 151.507 456.025 151.434C455.806 151.504 455.575 151.387 455.502 151.168C455.572 151.387 455.455 151.619 455.237 151.691C455.455 151.621 455.687 151.738 455.759 151.957ZM459.732 125.069C459.659 124.847 459.781 124.61 460 124.537C459.779 124.61 459.542 124.488 459.469 124.269C459.542 124.49 459.42 124.727 459.201 124.8C459.422 124.727 459.659 124.85 459.732 125.069ZM329.593 0.789232C329.523 0.570435 329.64 0.338616 329.859 0.265683C329.64 0.336011 329.409 0.218797 329.336 0C329.406 0.218797 329.289 0.450618 329.07 0.523551C329.289 0.453223 329.52 0.570435 329.593 0.789232ZM66.4721 47.1768C72.8276 47.1768 78.8294 49.3439 83.65 53.3266C85.4815 52.0919 87.6902 51.3704 90.0628 51.3704L271.145 50.6176H275.684C282.035 50.6176 287.186 55.7724 287.186 62.1331V79.0951C287.186 80.9731 288.705 82.4943 290.581 82.4943C291.814 82.4943 292.938 81.8145 293.544 80.7413C300.911 67.6682 317.025 64.5451 317.025 64.5451C321.424 63.4824 326.149 62.602 331.136 61.9143L330.98 61.06C330.525 58.5725 331.188 56.0381 332.796 54.1054C334.414 52.1623 336.792 51.0474 339.32 51.0474C339.672 51.0474 340.025 51.0683 340.379 51.1125C343.301 51.472 345.78 53.4386 347.06 56.0928L349.102 60.3255C352.937 60.151 356.917 60.0598 360.983 60.0598C361.548 60.0598 363.075 60.065 363.075 60.065C363.746 60.065 364.425 60.0572 365.109 60.0494C365.866 60.0416 366.626 60.0311 367.388 60.0311C368.845 60.0311 370.775 60.0572 372.779 60.2708C376.036 60.6146 378.731 62.154 380.367 64.6076C381.449 66.2304 381.881 68.1657 381.645 70.0385C381.439 71.6508 382.636 73.1121 384.238 73.3725L385.144 73.521C386.473 73.7372 387.784 74.0888 388.999 74.6749C392.027 76.1362 393.911 78.8711 394.756 81.5097C394.756 81.5097 396.629 85.8492 392.631 91.2384C391.067 93.3456 391.767 96.3332 394.153 97.4194C395.714 98.1305 397.384 98.9692 399.109 100.05L401.76 101.579C405.969 104.015 408.185 106.255 409.627 111.826C410.251 114.241 410.659 118.997 406.359 123.722L401.424 128.319C399.626 129.994 399.85 132.901 401.879 134.287L442.008 177.254C446.75 182.513 446.644 190.658 441.763 195.792L430.475 207.586C427.819 210.363 424.086 211.96 420.238 211.96H27.7172C23.7524 211.96 20.0062 210.313 17.3319 207.417L9.58971 199.665C9.34777 199.423 9.11884 199.173 8.90031 198.91C6.20512 195.685 5.08387 191.46 5.8227 187.324L12.2615 151.074L8.62194 146.242C8.44764 146.011 8.28114 145.774 8.12505 145.529C5.50791 141.447 5.1489 136.376 7.16769 131.968L23.4038 96.44C26.8378 88.9149 33.2402 83.7706 40.7118 82.2416C39.8793 79.6317 39.4526 76.9098 39.4526 74.1201C39.4526 59.2679 51.5732 47.182 66.4721 47.182M66.4721 41.5714C48.4851 41.5714 33.8542 56.1709 33.8542 74.1149C33.8542 75.5683 33.9504 77.0113 34.1429 78.4387C31.5882 79.5197 29.1792 80.9679 27.0095 82.7391C23.3518 85.7242 20.3444 89.6521 18.3126 94.1036L2.0765 129.629C-0.738356 135.779 -0.24146 142.854 3.41369 148.553C3.64782 148.917 3.89757 149.274 4.15252 149.615L6.32219 152.494L0.310062 186.337C-0.720143 192.106 0.843373 198.001 4.60518 202.502C4.92777 202.89 5.27378 203.268 5.63018 203.622L13.3047 211.303C17.0249 215.281 22.2722 217.56 27.7198 217.56H420.249C425.616 217.56 430.821 215.335 434.531 211.457L445.816 199.665L445.824 199.658L445.832 199.65C452.718 192.403 452.872 180.914 446.178 173.49L446.144 173.454L446.11 173.417L406.624 131.138L410.186 127.819L410.355 127.66L410.511 127.488C413.131 124.608 414.767 121.365 415.371 117.848C415.904 114.749 415.496 112.092 415.059 110.409C413.126 102.941 409.614 99.6308 404.572 96.7161L401.999 95.2314C400.787 94.476 399.533 93.7806 398.141 93.0929C402.103 86.7035 400.623 81.231 400.053 79.6603C398.588 75.2115 395.453 71.5544 391.434 69.6165C390.17 69.007 388.804 68.546 387.287 68.2152C387.144 65.8266 386.372 63.5032 385.029 61.4898C382.451 57.6244 378.309 55.2098 373.369 54.6888C371.106 54.4492 368.986 54.4179 367.391 54.4179C366.631 54.4179 365.879 54.4258 365.151 54.4336H365.049C364.363 54.444 363.72 54.4518 363.083 54.4518C362.911 54.4518 361.522 54.4466 360.988 54.4466C358.179 54.4466 355.356 54.4909 352.557 54.5768L352.109 53.6469C349.942 49.1538 345.814 46.1245 341.066 45.541C340.488 45.4707 339.903 45.4342 339.326 45.4342C335.129 45.4342 331.183 47.2836 328.498 50.5083C326.898 52.4279 325.863 54.7045 325.446 57.106C322.096 57.6712 318.87 58.3276 315.81 59.0648C314.179 59.406 301.564 62.3051 292.784 72.216V62.1305C292.784 52.691 285.112 45.0097 275.684 45.0097H271.121L90.055 45.7624C88.0414 45.7624 86.0668 46.1141 84.2093 46.7939C82.1177 45.4342 79.883 44.3246 77.526 43.4807C73.9931 42.2148 70.2755 41.5714 66.4721 41.5714Z" fill="url(#paint1_radial_75_4254)"/>
<path d="M138.012 81.4603C137.403 81.8953 136.682 82.1141 135.855 82.1141C134.614 82.1141 133.644 81.7 132.949 80.8716C132.252 80.0225 131.903 78.9103 131.903 77.535C131.903 76.6416 132.054 75.8445 132.361 75.1465C132.665 74.4484 133.113 73.904 133.701 73.5107C134.289 73.1174 134.986 72.922 135.792 72.922C136.599 72.922 137.351 73.1617 137.98 73.6409C138.612 74.1202 138.992 74.7323 139.122 75.4721H143.696C143.61 74.2062 143.194 73.0965 142.455 72.1354C141.737 71.1534 140.777 70.3902 139.58 69.8458C138.404 69.3015 137.098 69.028 135.66 69.028C133.982 69.028 132.502 69.3978 131.216 70.1402C129.931 70.8825 128.93 71.9062 128.212 73.2138C127.514 74.5005 127.166 75.9383 127.166 77.5324C127.166 79.1265 127.514 80.5643 128.212 81.8484C128.93 83.1352 129.931 84.1588 131.216 84.922C132.502 85.6643 133.982 86.0342 135.66 86.0342C137.054 86.0342 138.339 85.7607 139.515 85.2163C140.712 84.6485 141.693 83.8853 142.455 82.9268C143.217 81.9448 143.665 80.8456 143.795 79.624H139.19C139.016 80.3872 138.623 80.9967 138.014 81.4551L138.012 81.4603Z" fill="#15008B"/>
<path d="M120.909 81.7884C120.321 82.1375 119.569 82.312 118.656 82.312C117.743 82.312 117.033 82.1166 116.403 81.7233C115.794 81.3092 115.326 80.7413 114.998 80.0224C114.803 79.577 114.673 79.0821 114.593 78.5508H126.398C126.419 78.048 126.443 77.5583 126.463 77.0791C126.463 75.7272 126.169 74.4405 125.581 73.2189C125.014 71.9973 124.122 70.9944 122.904 70.2104C121.684 69.4264 120.16 69.0331 118.331 69.0331C116.502 69.0331 115.076 69.4368 113.856 70.2443C112.636 71.0517 111.723 72.0962 111.112 73.383C110.503 74.6697 110.196 76.0424 110.196 77.5036C110.196 78.9649 110.524 80.3168 111.177 81.6243C111.83 82.9319 112.787 83.9998 114.051 84.8307C115.337 85.6382 116.872 86.0393 118.656 86.0393C120.006 86.0393 121.237 85.7997 122.348 85.3204C123.459 84.8412 124.374 84.1639 125.092 83.2914C125.834 82.3979 126.302 81.3613 126.497 80.1839H122.054C121.879 80.882 121.497 81.416 120.909 81.7858V81.7884ZM116.206 72.8907C116.793 72.5416 117.501 72.3671 118.328 72.3671C119.374 72.3671 120.212 72.6823 120.844 73.3153C121.497 73.9248 121.856 74.7114 121.921 75.6699H114.639C114.71 75.2453 114.803 74.8572 114.931 74.5238C115.214 73.7815 115.638 73.2371 116.206 72.8881V72.8907Z" fill="#15008B"/>
<path d="M103.684 64.1596C101.897 63.3105 99.9173 62.8833 97.7399 62.8833H90.0627V85.7762H97.7399C99.9173 85.7762 101.9 85.3621 103.684 84.5338C105.469 83.6847 106.897 82.3979 107.964 80.6736C109.03 78.9284 109.564 76.8134 109.564 74.3285C109.564 71.8436 109.03 69.7051 107.964 67.9834C106.897 66.2616 105.472 64.9853 103.684 64.157V64.1596ZM103.585 78.5169C102.912 79.5848 102.017 80.3584 100.906 80.8377C99.8159 81.2961 98.5984 81.5253 97.2482 81.5253H94.9614V67.103H97.2482C98.5984 67.103 99.8185 67.3426 100.906 67.8219C102.017 68.3011 102.909 69.0747 103.585 70.1453C104.262 71.2132 104.597 72.6094 104.597 74.3311C104.597 76.0528 104.259 77.4489 103.585 78.5169Z" fill="#15008B"/>
<path d="M202.181 69.2936H200.352C199.306 69.2936 198.458 69.4993 197.805 69.9161C197.173 70.3303 196.64 71.0387 196.205 72.0416V69.2936H191.665V85.7763H196.205V77.7641C196.205 76.3029 196.478 75.1594 197.022 74.3311C197.566 73.5028 198.383 73.0887 199.473 73.0887H202.183V69.2962L202.181 69.2936Z" fill="#15008B"/>
<path d="M154.916 81.7884C154.328 82.1375 153.576 82.312 152.663 82.312C151.75 82.312 151.04 82.1166 150.41 81.7233C149.802 81.3092 149.333 80.7413 149.006 80.0224C148.808 79.577 148.68 79.0821 148.6 78.5508H160.405C160.426 78.048 160.45 77.5583 160.471 77.0791C160.471 75.7272 160.177 74.4405 159.589 73.2189C159.021 71.9973 158.129 70.9944 156.909 70.2104C155.689 69.4264 154.164 69.0331 152.336 69.0331C150.507 69.0331 149.081 69.4368 147.861 70.2443C146.641 71.0517 145.728 72.0962 145.116 73.383C144.508 74.6697 144.201 76.0424 144.201 77.5036C144.201 78.9649 144.528 80.3168 145.181 81.6243C145.834 82.9319 146.792 83.9998 148.056 84.8307C149.341 85.6382 150.876 86.0393 152.661 86.0393C154.011 86.0393 155.241 85.7997 156.352 85.3204C157.463 84.8412 158.376 84.1639 159.097 83.2914C159.838 82.3979 160.307 81.3613 160.502 80.1839H156.058C155.884 80.882 155.504 81.416 154.916 81.7858V81.7884ZM150.213 72.8907C150.801 72.5416 151.508 72.3671 152.336 72.3671C153.381 72.3671 154.219 72.6823 154.851 73.3153C155.504 73.9248 155.863 74.7114 155.928 75.6699H148.647C148.717 75.2453 148.81 74.8572 148.938 74.5238C149.221 73.7815 149.646 73.2371 150.213 72.8881V72.8907Z" fill="#15008B"/>
<path d="M236.092 69.8171C235.002 69.2936 233.761 69.0331 232.369 69.0331C230.977 69.0331 229.635 69.2962 228.547 69.8171C227.457 70.3407 226.609 71.0596 226 71.9764C225.412 72.8698 225.085 73.8727 225.02 74.9849H229.07C229.091 74.5056 229.211 74.068 229.429 73.6773C229.669 73.284 230.017 72.9688 230.475 72.7292C230.954 72.4896 231.51 72.3697 232.14 72.3697C233.056 72.3697 233.763 72.5885 234.263 73.0235C234.786 73.4377 235.046 73.9925 235.046 74.6905C235.046 75.0604 234.937 75.3547 234.721 75.5735C234.526 75.7923 234.219 75.8991 233.805 75.8991H231.06C229.231 75.8991 227.762 76.368 226.651 77.3057C225.561 78.2434 225.017 79.5093 225.017 81.1008C225.017 82.0385 225.246 82.8876 225.704 83.6508C226.162 84.3932 226.794 84.9818 227.598 85.4168C228.425 85.831 229.362 86.0393 230.407 86.0393C231.539 86.0393 232.52 85.8101 233.347 85.3517C234.195 84.8933 234.762 84.2733 235.046 83.4867V85.7763H239.586V75.1802C239.586 73.9586 239.271 72.8907 238.639 71.9738C238.03 71.0361 237.179 70.3172 236.092 69.8145V69.8171ZM235.046 79.0066C235.046 80.098 234.731 80.9914 234.099 81.6894C233.49 82.3875 232.65 82.7365 231.583 82.7365C230.93 82.7365 230.397 82.5724 229.983 82.2469C229.591 81.8978 229.395 81.4524 229.395 80.9054C229.395 80.2725 229.614 79.7619 230.048 79.3686C230.483 78.9753 231.05 78.78 231.747 78.78H235.046V79.0092V79.0066Z" fill="#15008B"/>
<path d="M254.555 69.851C253.639 69.3066 252.583 69.0331 251.386 69.0331C250.254 69.0331 249.24 69.2623 248.347 69.7207C247.476 70.1557 246.813 70.7782 246.355 71.5857V69.2962H241.815V85.7789H246.355V76.7509C246.355 76.0528 246.495 75.4329 246.779 74.8859C247.083 74.3181 247.486 73.8831 247.988 73.5783C248.511 73.2527 249.099 73.0886 249.752 73.0886C250.689 73.0886 251.451 73.4168 252.039 74.0706C252.627 74.7036 252.921 75.5215 252.921 76.5243V85.7789H257.494V75.5084C257.494 74.2451 257.234 73.1199 256.711 72.1405C256.209 71.1585 255.491 70.3953 254.555 69.851Z" fill="#15008B"/>
<path d="M271.145 62.1306V71.0258C270.666 70.3928 270.034 69.9031 269.251 69.5541C268.468 69.2051 267.573 69.0305 266.571 69.0305C264.982 69.0305 263.608 69.3796 262.456 70.0776C261.3 70.7757 260.408 71.7681 259.776 73.0548C259.167 74.3416 258.86 75.8341 258.86 77.535C258.86 79.2359 259.165 80.7284 259.776 82.0151C260.408 83.2784 261.311 84.2708 262.487 84.9923C263.663 85.6904 265.047 86.0394 266.636 86.0394C267.573 86.0394 268.444 85.8649 269.251 85.5158C270.057 85.146 270.687 84.6328 271.145 83.9791V85.7789H275.684V62.1332H271.145V62.1306ZM270.884 79.9574C270.557 80.6554 270.091 81.1894 269.48 81.5593C268.871 81.9291 268.163 82.1141 267.357 82.1141C266.137 82.1141 265.159 81.6999 264.417 80.8716C263.699 80.0225 263.34 78.9103 263.34 77.535C263.34 76.6181 263.504 75.8132 263.829 75.1152C264.178 74.4171 264.646 73.8831 265.234 73.5133C265.843 73.12 266.55 72.9246 267.357 72.9246C268.577 72.9246 269.558 73.3492 270.297 74.2009C271.038 75.0292 271.407 76.1414 271.407 77.5376C271.407 78.4544 271.233 79.2593 270.884 79.9574Z" fill="#15008B"/>
<path d="M223.287 62.1306H218.747V85.7763H223.287V62.1306Z" fill="#15008B"/>
<path d="M174.797 69.851C173.881 69.3066 172.825 69.0331 171.628 69.0331C170.497 69.0331 169.482 69.2623 168.59 69.7207C167.718 70.1557 167.055 70.7782 166.597 71.5857V69.2962H162.057V85.7789H166.597V76.7509C166.597 76.0528 166.738 75.4329 167.021 74.8859C167.326 74.3181 167.729 73.8831 168.231 73.5783C168.754 73.2527 169.342 73.0886 169.995 73.0886C170.931 73.0886 171.693 73.4168 172.281 74.0706C172.869 74.7036 173.163 75.5215 173.163 76.5243V85.7789H177.737V75.5084C177.737 74.2451 177.477 73.1199 176.954 72.1405C176.452 71.1585 175.734 70.3953 174.797 69.851Z" fill="#15008B"/>
<path d="M185.906 64.4202H181.332V69.2936H178.197V73.0861H181.332V79.7907C181.332 81.0331 181.592 82.1141 182.115 83.0283C182.638 83.9217 183.367 84.6094 184.303 85.0887C185.24 85.5471 186.34 85.7763 187.602 85.7763H190.313V81.95H188.19C187.448 81.95 186.884 81.7546 186.491 81.3613C186.098 80.968 185.903 80.3793 185.903 79.5953V73.0861H190.313V69.2936H185.903V64.4202H185.906Z" fill="#15008B"/>
<path d="M213.027 69.8171C211.936 69.2936 210.696 69.0331 209.304 69.0331C207.912 69.0331 206.572 69.2962 205.482 69.8171C204.392 70.3407 203.544 71.0596 202.935 71.9764C202.347 72.8698 202.019 73.8727 201.954 74.9849H206.005C206.026 74.5056 206.145 74.068 206.364 73.6773C206.603 73.284 206.952 72.9688 207.41 72.7292C207.889 72.4896 208.445 72.3697 209.075 72.3697C209.991 72.3697 210.698 72.5885 211.198 73.0235C211.721 73.4377 211.981 73.9925 211.981 74.6905C211.981 75.0604 211.871 75.3547 211.653 75.5735C211.458 75.7923 211.153 75.8991 210.737 75.8991H207.993C206.164 75.8991 204.694 76.368 203.583 77.3057C202.493 78.2434 201.949 79.5093 201.949 81.1008C201.949 82.0385 202.178 82.8876 202.636 83.6508C203.094 84.3932 203.726 84.9818 204.53 85.4168C205.357 85.831 206.294 86.0393 207.34 86.0393C208.471 86.0393 209.452 85.8101 210.279 85.3517C211.127 84.8933 211.695 84.2733 211.978 83.4867V85.7763H216.518V75.1802C216.518 73.9586 216.203 72.8907 215.571 71.9738C214.962 71.0361 214.111 70.3172 213.024 69.8145L213.027 69.8171ZM211.981 79.0066C211.981 80.098 211.666 80.9914 211.034 81.6894C210.425 82.3875 209.585 82.7365 208.518 82.7365C207.865 82.7365 207.332 82.5724 206.918 82.2469C206.525 81.8978 206.33 81.4524 206.33 80.9054C206.33 80.2725 206.549 79.7619 206.983 79.3686C207.418 78.9753 207.985 78.78 208.682 78.78H211.981V79.0092V79.0066Z" fill="#15008B"/>
<path d="M66.4721 89.6521C69.0112 89.6521 71.4332 89.079 73.5691 87.9902H59.3777C61.511 89.079 63.8784 89.6521 66.4747 89.6521H66.4721Z" fill="#15008B"/>
<path d="M56.7216 86.3258H76.0483C76.6831 85.8101 77.3751 85.1797 77.7784 84.7213H54.9916C55.5691 85.2944 56.1441 85.8674 56.7216 86.3258Z" fill="#15008B"/>
<path d="M67.4529 81.1086H52.4525C52.7985 81.7963 53.2017 82.4266 53.6049 83.057H65.7775L67.4503 81.1086H67.4529Z" fill="#15008B"/>
<path d="M66.4721 58.6924C57.9339 58.6924 50.954 65.5715 50.954 74.115C50.954 76.006 51.3 77.8423 51.9348 79.5041L57.9339 72.3386L61.3965 68.1528L69.8203 78.2435L72.2423 75.3184L78.5874 82.8877H79.1077C80.895 80.3663 81.8757 77.3266 81.8757 74.0577C81.9902 65.5715 75.0103 58.6924 66.4721 58.6924ZM61.3367 66.7748C60.1244 66.7748 59.2008 65.8007 59.2008 64.6546C59.2008 63.5085 60.1816 62.5344 61.3367 62.5344C62.549 62.5344 63.4699 63.5085 63.4699 64.6546C63.4699 65.8007 62.5464 66.7748 61.3367 66.7748ZM72.5857 73.7138C70.2209 73.7138 68.3166 71.8228 68.3166 69.4707C68.3166 67.1187 70.2209 65.2276 72.5857 65.2276C74.9505 65.2276 76.8548 67.1187 76.8548 69.4707C76.912 71.8228 74.9505 73.7138 72.5857 73.7138Z" fill="#15008B"/>
<path d="M61.7997 71.0178V79.5613H68.8941L61.7997 71.0178Z" fill="#15008B"/>
<path d="M72.7599 83.1742H76.7975L72.7599 78.3008V83.1742Z" fill="#15008B"/>
<path d="M82.5937 137.866L81.241 121.607C81.1187 120.312 81.1187 118.958 81.1187 117.788C81.1187 116.371 81.1811 115.139 81.3034 114.277C79.6436 116.804 77.9214 119.265 73.6133 124.993L67.2161 133.43C63.9564 137.741 61.8648 138.603 58.6051 138.603C54.8537 138.603 52.6996 138.17 50.9149 133.43L47.1011 123.576C44.947 118.033 44.2706 116.124 43.7191 114.275C43.1052 116.246 42.1816 118.71 41.076 121.297L34.0024 137.863H20.04L36.2787 102.327C38.2455 98.0158 41.7524 95.9216 45.3815 95.9216C49.0106 95.9216 51.0398 97.8309 52.2703 100.787L57.0676 112.12C59.7731 118.463 60.6343 120.682 61.2508 122.714C62.6036 120.682 64.266 118.525 69.1855 112.183L77.9214 100.79C80.1353 97.9559 82.8435 95.9242 86.5949 95.9242C89.9769 95.9242 92.9921 98.0184 93.4837 102.329C94.5894 114.155 95.6378 126.04 96.8059 137.866H82.5964H82.5937ZM145.207 96.664H159.542L155.358 119.883C153.145 132.323 143.488 138.543 125.956 138.543C108.424 138.543 100.058 133.615 100.058 123.701C100.058 122.532 100.18 121.174 100.427 119.883L104.548 96.664H118.758L114.759 119.205C114.452 120.745 114.327 121.484 114.327 122.099C114.327 125.485 117.033 126.717 128.107 126.717C136.781 126.717 140.163 124.808 141.086 119.88L145.207 96.6614V96.664ZM155.72 137.866L166.977 126.04H198.042C200.133 126.04 201.364 125.178 201.364 123.514C201.364 122.281 200.378 121.727 198.658 121.727H175.406C165.994 121.727 161.81 117.601 161.81 111.688C161.81 102.756 167.284 96.6614 182.357 96.6614H218.711L207.332 108.672H178.85C176.636 108.672 175.591 109.286 175.591 111.013C175.591 112.245 176.514 112.675 178.174 112.675H201.486C210.404 112.675 215.264 115.939 215.264 122.099C215.264 130.291 211.697 137.866 195.765 137.866H155.72ZM217.225 137.866L224.484 96.6614H238.693L231.435 137.866H217.225ZM261.881 137.866C248.839 137.866 240.168 130.106 240.168 119.698C240.168 106.148 253.21 96.664 269.141 96.664H298.729L287.409 108.674H266.987C259.422 108.674 254.563 111.261 254.563 118.528C254.563 123.516 258.129 126.043 263.975 126.043H293.502L282.308 137.868H261.886L261.881 137.866ZM36.6091 175.275L34.0258 189.809H19.7538L27.0745 148.605H74.0087L62.6895 160.615H39.13L38.5759 164.126H68.9643L58.3215 175.275H36.6091ZM69.7604 189.809L77.0811 148.605H125.678L114.299 160.615H89.1392L88.5851 164.064H120.449L110.729 174.103H86.8004L86.124 177.984H120.633L109.376 189.809H69.763H69.7604ZM119.088 189.809L130.345 177.984H161.41C163.501 177.984 164.732 177.121 164.732 175.457C164.732 174.225 163.746 173.67 162.026 173.67H138.774C129.361 173.67 125.178 169.544 125.178 163.632C125.178 154.7 130.652 148.605 145.725 148.605H182.079L170.7 160.615H142.218C140.004 160.615 138.958 161.233 138.958 162.957C138.958 164.189 139.882 164.619 141.542 164.619H164.854C173.772 164.619 178.634 167.882 178.634 174.043C178.634 182.234 175.068 189.809 159.133 189.809H119.088ZM191.114 189.809L195.021 167.463L196.218 160.615H177.518L188.897 148.605H235.402L224.023 160.615H210.49L205.383 189.809H191.111H191.114ZM230.907 189.809L238.165 148.605H252.375L245.116 189.809H230.907ZM293.156 185.376C290.758 188.085 287.558 190.549 283.192 190.549C278.827 190.549 276.486 188.27 274.948 185.376L255.879 148.607H273.348L286.267 174.228L309.213 148.607H326.006L293.156 185.376ZM324.153 189.809L334.856 177.984H344.084C346.053 177.984 348.389 177.984 349.62 178.106C349.19 177.429 348.082 175.519 347.466 174.225L342.421 164.186L319.476 189.806H302.621L335.408 153.101C337.869 150.329 341.066 147.865 345.496 147.865C349.927 147.865 352.141 150.144 353.678 153.101L372.81 189.806H324.153V189.809ZM376.002 189.809L383.323 148.605H397.532L392.303 177.984H423.612L412.293 189.809H375.999H376.002Z" fill="#FCFCFC"/>
<g style="mix-blend-mode:multiply" opacity="0.5">
<path d="M82.5937 137.866L81.241 121.607C81.1187 120.312 81.1187 118.958 81.1187 117.788C81.1187 116.371 81.1811 115.139 81.3034 114.277C79.6436 116.804 77.9214 119.265 73.6133 124.993L67.2161 133.43C63.9564 137.741 61.8648 138.603 58.6051 138.603C54.8537 138.603 52.6996 138.17 50.9149 133.43L47.1011 123.576C44.947 118.033 44.2706 116.124 43.7191 114.275C43.1052 116.246 42.1816 118.71 41.076 121.297L34.0024 137.863H20.04L36.2787 102.327C38.2455 98.0158 41.7524 95.9216 45.3815 95.9216C49.0106 95.9216 51.0398 97.8309 52.2703 100.787L57.0676 112.12C59.7731 118.463 60.6343 120.682 61.2508 122.714C62.6036 120.682 64.266 118.525 69.1855 112.183L77.9214 100.79C80.1353 97.9559 82.8435 95.9242 86.5949 95.9242C89.9769 95.9242 92.9921 98.0184 93.4837 102.329C94.5894 114.155 95.6378 126.04 96.8059 137.866H82.5964H82.5937ZM145.207 96.664H159.542L155.358 119.883C153.145 132.323 143.488 138.543 125.956 138.543C108.424 138.543 100.058 133.615 100.058 123.701C100.058 122.532 100.18 121.174 100.427 119.883L104.548 96.664H118.758L114.759 119.205C114.452 120.745 114.327 121.484 114.327 122.099C114.327 125.485 117.033 126.717 128.107 126.717C136.781 126.717 140.163 124.808 141.086 119.88L145.207 96.6614V96.664ZM155.72 137.866L166.977 126.04H198.042C200.133 126.04 201.364 125.178 201.364 123.514C201.364 122.281 200.378 121.727 198.658 121.727H175.406C165.994 121.727 161.81 117.601 161.81 111.688C161.81 102.756 167.284 96.6614 182.357 96.6614H218.711L207.332 108.672H178.85C176.636 108.672 175.591 109.286 175.591 111.013C175.591 112.245 176.514 112.675 178.174 112.675H201.486C210.404 112.675 215.264 115.939 215.264 122.099C215.264 130.291 211.697 137.866 195.765 137.866H155.72ZM217.225 137.866L224.484 96.6614H238.693L231.435 137.866H217.225ZM261.881 137.866C248.839 137.866 240.168 130.106 240.168 119.698C240.168 106.148 253.21 96.664 269.141 96.664H298.729L287.409 108.674H266.987C259.422 108.674 254.563 111.261 254.563 118.528C254.563 123.516 258.129 126.043 263.975 126.043H293.502L282.308 137.868H261.886L261.881 137.866ZM36.6091 175.275L34.0258 189.809H19.7538L27.0745 148.605H74.0087L62.6895 160.615H39.13L38.5759 164.126H68.9643L58.3215 175.275H36.6091ZM69.7604 189.809L77.0811 148.605H125.678L114.299 160.615H89.1392L88.5851 164.064H120.449L110.729 174.103H86.8004L86.124 177.984H120.633L109.376 189.809H69.763H69.7604ZM119.088 189.809L130.345 177.984H161.41C163.501 177.984 164.732 177.121 164.732 175.457C164.732 174.225 163.746 173.67 162.026 173.67H138.774C129.361 173.67 125.178 169.544 125.178 163.632C125.178 154.7 130.652 148.605 145.725 148.605H182.079L170.7 160.615H142.218C140.004 160.615 138.958 161.233 138.958 162.957C138.958 164.189 139.882 164.619 141.542 164.619H164.854C173.772 164.619 178.634 167.882 178.634 174.043C178.634 182.234 175.068 189.809 159.133 189.809H119.088ZM191.114 189.809L195.021 167.463L196.218 160.615H177.518L188.897 148.605H235.402L224.023 160.615H210.49L205.383 189.809H191.111H191.114ZM230.907 189.809L238.165 148.605H252.375L245.116 189.809H230.907ZM293.156 185.376C290.758 188.085 287.558 190.549 283.192 190.549C278.827 190.549 276.486 188.27 274.948 185.376L255.879 148.607H273.348L286.267 174.228L309.213 148.607H326.006L293.156 185.376ZM324.153 189.809L334.856 177.984H344.084C346.053 177.984 348.389 177.984 349.62 178.106C349.19 177.429 348.082 175.519 347.466 174.225L342.421 164.186L319.476 189.806H302.621L335.408 153.101C337.869 150.329 341.066 147.865 345.496 147.865C349.927 147.865 352.141 150.144 353.678 153.101L372.81 189.806H324.153V189.809ZM376.002 189.809L383.323 148.605H397.532L392.303 177.984H423.612L412.293 189.809H375.999H376.002Z" fill="#0FF3F2"/>
</g>
<defs>
<linearGradient id="paint0_linear_75_4254" x1="16.9363" y1="147.222" x2="433.86" y2="147.222" gradientUnits="userSpaceOnUse">
<stop stop-color="#2185E2"/>
<stop offset="1" stop-color="#8300C0"/>
</linearGradient>
<radialGradient id="paint1_radial_75_4254" cx="0" cy="0" r="1" gradientUnits="userSpaceOnUse" gradientTransform="translate(229.999 108.781) scale(179.867 180.088)">
<stop stop-color="#8300C0"/>
<stop offset="1" stop-color="#0FF3F2"/>
</radialGradient>
</defs>
</svg>
