<svg width="56" height="57" viewBox="0 0 56 57" fill="none" xmlns="http://www.w3.org/2000/svg">
<path d="M55.2449 4.43562C55.2449 3.08732 54.8572 2.00869 54.068 1.19971C51.285 -1.65299 45.0406 0.603627 35.5286 7.91279C27.7196 4.40723 18.526 6.15292 12.4893 12.3409C8.55712 16.3716 6.39718 21.7222 6.39718 27.4134C6.39718 30.3654 6.99255 33.2465 8.15559 35.9715C1.02504 45.7076 -1.16259 52.1084 1.6204 54.9611C2.40961 55.7701 3.46188 56.1675 4.77723 56.1675C8.2802 56.1675 13.6662 53.3432 20.866 47.7087C22.9428 48.39 25.0612 48.7306 27.1935 48.7306C32.7456 48.7306 37.9654 46.5165 41.8976 42.4859C45.816 38.4694 47.9759 33.1188 47.9759 27.4134C47.9759 25.2561 47.6436 23.0704 46.979 20.9416C50.8143 15.7897 55.2449 8.87789 55.2449 4.43562ZM37.6331 13.8595L34.0609 17.5212C30.461 14.1859 26.5566 11.8157 22.9151 10.7087C27.9965 9.34624 33.4517 10.4675 37.6331 13.8595ZM29.9765 27.4134L34.0609 23.2266C35.1132 24.4471 36.0686 25.7103 36.8855 27.0018C35.7501 28.2791 34.5594 29.5706 33.3271 30.8622L29.9626 27.4134H29.9765ZM30.558 33.7007C29.298 34.9496 28.0381 36.1844 26.7781 37.3482C25.532 36.5108 24.2997 35.5315 23.109 34.4387L27.1935 30.2519L30.558 33.7007ZM36.8439 20.3597L40.4023 16.7122C41.2607 17.805 41.9669 18.9972 42.5207 20.2461C41.6069 21.4241 40.6238 22.6447 39.5854 23.8794C38.7547 22.6731 37.8408 21.5093 36.8439 20.3739V20.3597ZM31.278 20.3739L27.1935 24.5607L17.0999 14.2143C20.5198 13.3769 26.3073 15.8606 31.278 20.3739ZM14.3169 17.0528L24.4243 27.4134L20.3398 31.6002C16.5738 27.2431 14.1646 22.2047 14.1646 18.543C14.1646 18.0037 14.22 17.507 14.3308 17.0528H14.3169ZM10.9109 22.9853C11.977 26.7321 14.3031 30.7486 17.5568 34.4387L13.9846 38.1004C11.6309 35.049 10.3432 31.2879 10.3432 27.3992C10.3432 25.8948 10.537 24.4187 10.9109 22.9853ZM4.41725 52.1084C4.16802 51.5407 4.48648 48.0777 10.3017 39.8035C10.9801 40.7686 11.7139 41.6769 12.5031 42.4717C13.7631 43.7632 15.1892 44.8844 16.7538 45.8211C8.44634 52.0233 4.97108 52.3781 4.41725 52.1084ZM20.2014 43.1387C18.9968 42.571 17.8476 41.8472 16.7676 40.9673L20.3398 37.3056C21.4613 38.3416 22.5967 39.2783 23.7597 40.1299C22.5552 41.1943 21.3644 42.202 20.2014 43.1529V43.1387ZM24.7843 44.5012C25.5874 43.8058 26.4319 43.082 27.2765 42.3156C28.5919 43.0252 29.8934 43.5787 31.1395 43.9903C31.2641 44.0329 31.4026 44.0754 31.5272 44.118C29.3673 44.7141 27.1104 44.8702 24.7843 44.5154V44.5012ZM32.3164 40.1441C31.7072 39.9454 31.0703 39.7041 30.4195 39.3919C31.4164 38.4552 32.3856 37.4901 33.341 36.5392L37.287 40.5841C35.9717 40.9105 34.2548 40.7544 32.3164 40.1299V40.1441ZM40.07 37.7597L36.124 33.7149C37.0516 32.7498 37.9793 31.7421 38.8931 30.7202C40.0838 33.4736 40.4854 35.9573 40.07 37.7597ZM43.476 31.7847C43.0745 30.3796 42.493 28.932 41.7453 27.4701C42.4791 26.6044 43.1853 25.767 43.8499 24.9439C44.1683 27.2289 44.0299 29.5564 43.476 31.7847ZM41.8976 12.3409C41.1084 11.5319 40.2361 10.7797 39.2946 10.0843C47.3528 4.12338 50.7451 3.79695 51.2989 4.05242C51.562 4.62012 51.2158 8.18245 45.1652 16.698C44.2652 15.0942 43.1714 13.6324 41.9115 12.3409H41.8976Z" fill="url(#paint0_linear_7120_12072)"/>
<defs>
<linearGradient id="paint0_linear_7120_12072" x1="0.451172" y1="28.0857" x2="55.2449" y2="28.0857" gradientUnits="userSpaceOnUse">
<stop stop-color="#56A7FF"/>
<stop offset="1" stop-color="#FB01FF"/>
</linearGradient>
</defs>
</svg>
