<svg width="162" height="44" viewBox="0 0 162 44" fill="none" xmlns="http://www.w3.org/2000/svg">
<path d="M151.51 42.621C158.08 36.4996 161.36 29.3962 161.36 21.3105C161.36 13.2248 158.08 6.13123 151.51 0L149.34 2.15292C155.38 7.75833 158.4 14.1475 158.4 21.3105C158.4 28.4735 155.38 34.8627 149.34 40.4682L151.51 42.621Z" fill="#C3B0FF"/>
<path d="M143.04 28.5529C145.27 26.3405 146.39 23.7313 146.39 20.7351C146.39 17.7389 145.28 15.1297 143.04 12.9173C140.81 10.7049 138.18 9.59375 135.16 9.59375C132.14 9.59375 129.51 10.7049 127.28 12.9173C125.05 15.1396 123.93 17.7389 123.93 20.7351C123.93 23.7313 125.05 26.3405 127.28 28.5529C129.51 30.7753 132.14 31.8765 135.16 31.8765C138.18 31.8765 140.81 30.7753 143.04 28.5529ZM135.16 20.7351V10.9629C137.79 10.9629 140.09 11.945 142.06 13.8995C144.03 15.8539 145.02 18.1358 145.02 20.745H135.16V20.7351Z" fill="#C3B0FF"/>
<path d="M92.6001 35.002L90.43 37.1549C94.63 41.7186 99.7601 44.0003 105.8 44.0003C111.84 44.0003 116.97 41.7186 121.17 37.1549L119 35.002C115.32 39.0398 110.92 41.0637 105.8 41.0637C100.68 41.0637 96.2801 39.0398 92.6001 35.002Z" fill="#C3B0FF"/>
<path d="M84.33 28.5529C86.56 26.3405 87.6799 23.7313 87.6799 20.7351C87.6799 17.7389 86.57 15.1297 84.33 12.9173C82.1 10.7049 79.47 9.59375 76.45 9.59375C73.43 9.59375 70.8 10.7049 68.57 12.9173C66.34 15.1396 65.22 17.7389 65.22 20.7351C65.22 23.7313 66.34 26.3405 68.57 28.5529C70.8 30.7753 73.43 31.8765 76.45 31.8765C79.47 31.8765 82.1 30.7753 84.33 28.5529ZM76.45 20.7351V10.9629C79.08 10.9629 81.38 11.945 83.35 13.8995C85.32 15.8539 86.31 18.1358 86.31 20.745H76.45V20.7351Z" fill="#C3B0FF"/>
<path d="M22.86 11.3495C21.68 12.2623 20.83 13.4329 20.3 14.8714C20.04 15.7842 19.91 16.4985 19.91 17.0243C19.91 18.5919 20.37 19.8915 21.29 20.9332C22.21 22.1039 23.39 22.9572 24.84 23.4731C25.5 23.731 26.22 23.86 27.01 23.86C28.32 23.86 29.64 23.4036 30.95 22.4909C30.95 22.8778 31.08 23.2746 31.34 23.6615C28.98 23.6615 27.14 24.6438 25.82 26.5982C24.9 27.7689 24.44 29.0784 24.44 30.5071C24.44 32.7294 25.49 34.6839 27.59 36.3705C28.64 37.1542 29.89 37.5411 31.33 37.5411C33.43 37.5411 35.4 36.4995 37.24 34.416C38.03 33.5033 38.42 32.2632 38.42 30.7056C38.42 30.0508 38.29 29.3364 38.03 28.5526C38.16 28.6816 38.36 28.6816 38.62 28.5526H39.21C38.95 29.3364 38.82 30.0508 38.82 30.7056C38.69 32.2731 39.15 33.5727 40.2 34.6144C41.65 36.5689 43.55 37.551 45.91 37.551C47.49 37.551 48.87 37.0946 50.05 36.1819C51.76 35.0112 52.68 33.3842 52.81 31.2909C52.94 29.5944 52.4799 28.0368 51.4299 26.5982C49.9899 24.6438 48.15 23.6615 45.91 23.6615C46.04 23.2746 46.17 22.8778 46.3 22.4909C47.48 23.4036 48.86 23.86 50.44 23.86C51.1 23.86 51.75 23.731 52.41 23.4731C53.72 22.9572 54.91 22.1039 55.96 20.9332C56.88 19.7625 57.34 18.4629 57.34 17.0243C57.34 16.5085 57.21 15.7842 56.95 14.8714C56.43 13.5718 55.57 12.4012 54.39 11.3495C53.21 10.4368 51.9 9.9804 50.45 9.9804C49.66 9.9804 48.94 10.1094 48.28 10.3673C46.05 11.1511 44.54 12.6491 43.75 14.8615C43.36 14.7325 43.03 14.4747 42.76 14.0778C44.86 12.5103 45.78 10.4268 45.52 7.82748C45.39 6.13098 44.6 4.63286 43.16 3.3332C41.85 2.16251 40.34 1.57715 38.63 1.57715C36.53 1.57715 34.76 2.43042 33.31 4.11701C32.39 5.15872 31.87 6.39885 31.73 7.82748C31.47 10.6947 32.39 12.7782 34.49 14.0778C33.97 14.3358 33.64 14.6036 33.5 14.8615C32.71 12.7781 31.2 11.2801 28.97 10.3673C28.18 10.1094 27.53 9.9804 27 9.9804C25.56 9.9804 24.18 10.4368 22.86 11.3495ZM34.68 25.2291C33.24 23.9294 32.51 22.4313 32.51 20.7348C32.51 19.3062 33.04 17.9965 34.09 16.8259C35.4 15.3972 36.92 14.6731 38.62 14.6731C40.32 14.6731 41.77 15.2584 42.95 16.4291C44.13 17.5998 44.72 19.0383 44.72 20.7249C44.72 22.1635 44.2 23.4631 43.14 24.6337C41.83 26.0723 40.32 26.7867 38.61 26.7867C37.17 26.7867 35.85 26.2708 34.67 25.2192L34.68 25.2291Z" fill="#C3B0FF"/>
<path d="M12.02 2.16269L9.85005 0.00976562C3.28005 6.141 1.52588e-05 13.2346 1.52588e-05 21.3202C1.52588e-05 29.4059 3.28005 36.4995 9.85005 42.6307L12.02 40.4779C5.98003 34.8725 2.96004 28.4932 2.96004 21.3202C2.96004 14.1473 5.98003 7.7681 12.02 2.16269Z" fill="#C3B0FF"/>
</svg>
