<svg width="162" height="45" viewBox="0 0 162 45" fill="none" xmlns="http://www.w3.org/2000/svg">
<path d="M9.85004 42.96C3.28004 36.79 0 29.63 0 21.48C0 13.33 3.28004 6.18 9.85004 0L12.02 2.17004C5.98002 7.82004 2.96002 14.26 2.96002 21.48C2.96002 28.7 5.98002 35.14 12.02 40.79L9.85004 42.96Z" fill="#C3B0FF"/>
<path d="M18.32 28.7799C16.09 26.5499 14.97 23.9199 14.97 20.8999C14.97 17.8799 16.08 15.2499 18.32 13.0199C20.55 10.7899 23.18 9.66992 26.2 9.66992C29.22 9.66992 31.85 10.7899 34.08 13.0199C36.31 15.2599 37.4301 17.8799 37.4301 20.8999C37.4301 23.9199 36.31 26.5499 34.08 28.7799C31.85 31.0199 29.22 32.1299 26.2 32.1299C23.18 32.1299 20.55 31.0199 18.32 28.7799ZM26.2 20.8999V11.0499C23.57 11.0499 21.27 12.0399 19.3 14.0099C17.33 15.9799 16.34 18.2799 16.34 20.9099H26.2V20.8999Z" fill="#C3B0FF"/>
<path d="M68.76 35.2803L70.9301 37.4503C66.7301 42.0503 61.6 44.3502 55.56 44.3502C49.52 44.3502 44.39 42.0503 40.19 37.4503L42.36 35.2803C46.04 39.3503 50.44 41.3903 55.56 41.3903C60.68 41.3903 65.08 39.3503 68.76 35.2803Z" fill="#C3B0FF"/>
<path d="M77.03 28.7799C74.8 26.5499 73.6801 23.9199 73.6801 20.8999C73.6801 17.8799 74.79 15.2499 77.03 13.0199C79.26 10.7899 81.89 9.66992 84.91 9.66992C87.93 9.66992 90.56 10.7899 92.79 13.0199C95.02 15.2599 96.14 17.8799 96.14 20.8999C96.14 23.9199 95.02 26.5499 92.79 28.7799C90.56 31.0199 87.93 32.1299 84.91 32.1299C81.89 32.1299 79.26 31.0199 77.03 28.7799ZM84.91 20.8999V11.0499C82.28 11.0499 79.98 12.0399 78.01 14.0099C76.04 15.9799 75.05 18.2799 75.05 20.9099H84.91V20.8999Z" fill="#C3B0FF"/>
<path d="M138.5 11.4399C139.68 12.3599 140.53 13.5399 141.06 14.9899C141.32 15.9099 141.45 16.6299 141.45 17.1599C141.45 18.7399 140.99 20.0499 140.07 21.0999C139.15 22.2799 137.97 23.1399 136.52 23.6599C135.86 23.9199 135.14 24.0499 134.35 24.0499C133.04 24.0499 131.72 23.5899 130.41 22.6699C130.41 23.0599 130.28 23.4599 130.02 23.8499C132.38 23.8499 134.22 24.8399 135.54 26.8099C136.46 27.9899 136.92 29.3099 136.92 30.7499C136.92 32.9899 135.87 34.9599 133.77 36.6599C132.72 37.4499 131.47 37.8398 130.03 37.8398C127.93 37.8398 125.96 36.7899 124.12 34.6899C123.33 33.7699 122.94 32.52 122.94 30.95C122.94 30.29 123.07 29.5699 123.33 28.7799C123.2 28.9099 123 28.9099 122.74 28.7799H122.15C122.41 29.5699 122.54 30.29 122.54 30.95C122.67 32.53 122.21 33.8399 121.16 34.8899C119.71 36.8599 117.81 37.8499 115.45 37.8499C113.87 37.8499 112.49 37.3898 111.31 36.4698C109.6 35.2898 108.68 33.6499 108.55 31.5399C108.42 29.8299 108.88 28.2599 109.93 26.8099C111.37 24.8399 113.21 23.8499 115.45 23.8499C115.32 23.4599 115.19 23.0599 115.06 22.6699C113.88 23.5899 112.5 24.0499 110.92 24.0499C110.26 24.0499 109.61 23.9199 108.95 23.6599C107.64 23.1399 106.45 22.2799 105.4 21.0999C104.48 19.9199 104.02 18.6099 104.02 17.1599C104.02 16.6399 104.15 15.9099 104.41 14.9899C104.93 13.6799 105.79 12.4999 106.97 11.4399C108.15 10.5199 109.46 10.0599 110.91 10.0599C111.7 10.0599 112.42 10.19 113.08 10.45C115.31 11.24 116.82 12.7499 117.61 14.9799C118 14.8499 118.33 14.5899 118.6 14.1899C116.5 12.6099 115.58 10.5099 115.84 7.88989C115.97 6.17989 116.76 4.66986 118.2 3.35986C119.51 2.17986 121.02 1.58984 122.73 1.58984C124.83 1.58984 126.6 2.4499 128.05 4.1499C128.97 5.1999 129.49 6.44989 129.63 7.88989C129.89 10.7799 128.97 12.8799 126.87 14.1899C127.39 14.4499 127.72 14.7199 127.86 14.9799C128.65 12.8799 130.16 11.37 132.39 10.45C133.18 10.19 133.83 10.0599 134.36 10.0599C135.8 10.0599 137.18 10.5199 138.5 11.4399ZM126.68 25.4299C128.12 24.1199 128.85 22.6099 128.85 20.8999C128.85 19.4599 128.32 18.1398 127.27 16.9598C125.96 15.5198 124.44 14.7899 122.74 14.7899C121.04 14.7899 119.59 15.3799 118.41 16.5599C117.23 17.7399 116.64 19.1899 116.64 20.8899C116.64 22.3399 117.16 23.6498 118.22 24.8298C119.53 26.2798 121.04 26.9999 122.75 26.9999C124.19 26.9999 125.51 26.4799 126.69 25.4199L126.68 25.4299Z" fill="#C3B0FF"/>
<path d="M149.34 2.17981L151.51 0.00976562C158.08 6.18977 161.36 13.3397 161.36 21.4897C161.36 29.6397 158.08 36.7897 151.51 42.9697L149.34 40.7998C155.38 35.1498 158.4 28.7197 158.4 21.4897C158.4 14.2597 155.38 7.82981 149.34 2.17981Z" fill="#C3B0FF"/>
</svg>
