<?xml version="1.0" standalone="no"?>
<!DOCTYPE svg PUBLIC "-//W3C//DTD SVG 20010904//EN"
 "http://www.w3.org/TR/2001/REC-SVG-20010904/DTD/svg10.dtd">
<svg version="1.0" xmlns="http://www.w3.org/2000/svg"
 width="1920.000000pt" height="1920.000000pt" viewBox="0 0 1920.000000 1920.000000"
 preserveAspectRatio="xMidYMid meet">
<metadata>
Created by potrace 1.14, written by Peter Selinger 2001-2017
</metadata>
<g transform="translate(0.000000,1920.000000) scale(0.100000,-0.100000)"
fill="#000000" stroke="none">
<path d="M6691 11265 c-52 -15 -112 -51 -138 -85 -7 -8 -23 -35 -35 -60 l-23
-45 -3 -592 -3 -593 121 0 120 0 0 553 c0 608 -2 588 61 602 48 11 85 -10 110
-63 25 -54 68 -147 97 -212 11 -25 73 -160 137 -300 64 -140 137 -302 163
-360 75 -172 160 -238 310 -242 165 -5 270 55 314 179 19 54 21 185 19 999
l-1 211 -120 -1 -120 -1 0 -553 0 -553 -25 -24 c-32 -33 -75 -32 -114 1 -17
14 -31 29 -31 34 0 4 -21 52 -46 107 -25 54 -88 190 -139 303 -51 113 -105
232 -120 265 -16 33 -52 113 -81 179 -64 142 -105 195 -179 232 -70 33 -191
42 -274 19z"/>
<path d="M11513 11266 c-62 -20 -107 -51 -136 -93 -14 -21 -60 -125 -101 -230
-42 -106 -109 -277 -150 -380 -40 -104 -115 -294 -166 -423 -51 -129 -94 -238
-97 -242 -2 -5 56 -8 129 -8 l133 0 54 138 c30 75 75 191 101 257 128 330 264
673 277 701 13 29 44 51 68 49 42 -4 55 -20 85 -98 57 -149 332 -881 362 -961
16 -44 30 -81 32 -83 2 -2 62 -2 134 -1 l130 3 -237 626 c-142 374 -248 640
-264 661 -15 19 -50 47 -79 63 -43 24 -65 29 -142 31 -59 3 -106 -1 -133 -10z"/>
<path d="M14330 11268 c-56 -13 -122 -58 -148 -101 -19 -30 -66 -147 -295
-729 -47 -119 -93 -230 -101 -247 -32 -62 -36 -62 -469 -59 -283 3 -403 7
-430 17 -50 16 -113 80 -126 128 -7 24 -11 208 -11 508 l0 471 -120 0 -121 0
1 -491 c1 -529 3 -554 55 -654 53 -103 150 -174 282 -208 49 -12 974 -16 1015
-3 20 6 52 25 71 43 35 33 44 55 348 830 77 198 98 241 119 251 27 13 34 14
66 3 17 -6 36 -46 88 -181 36 -95 66 -176 66 -180 0 -4 8 -26 19 -49 10 -23
57 -148 106 -277 48 -129 102 -273 120 -320 18 -47 36 -95 39 -107 7 -22 11
-23 141 -23 l135 0 -11 28 c-6 15 -42 110 -81 212 -38 102 -80 212 -93 245
-22 57 -144 378 -242 640 -56 149 -86 192 -153 229 -45 24 -67 29 -139 32 -47
2 -106 -2 -131 -8z"/>
<path d="M15593 11266 c-93 -30 -148 -82 -178 -171 -15 -45 -17 -112 -17 -625
l-1 -575 119 -3 120 -3 -1 548 c-1 462 2 552 14 575 24 44 85 51 125 16 14
-14 73 -131 142 -283 64 -143 135 -298 156 -345 22 -47 67 -146 100 -220 89
-202 118 -241 206 -281 57 -27 74 -30 154 -30 116 -1 182 23 244 89 70 74 71
83 71 726 l0 572 -118 0 c-100 0 -119 -3 -120 -16 0 -8 -2 -259 -2 -557 -2
-616 3 -578 -84 -578 -38 0 -49 5 -65 26 -11 14 -97 196 -192 405 -95 208
-180 395 -188 414 -103 225 -126 258 -214 301 -58 28 -203 36 -271 15z"/>
<path d="M891 11244 c-16 -7 -35 -23 -42 -36 -10 -18 -13 -164 -13 -634 0
-564 2 -614 18 -638 9 -15 28 -31 42 -36 14 -6 156 -10 319 -10 338 0 416 10
533 68 90 44 177 132 219 224 24 51 46 111 44 125 0 2 5 17 10 35 33 113 28
364 -11 508 -23 89 -80 190 -138 248 -69 69 -131 104 -237 133 -74 21 -103 22
-397 24 -234 1 -325 -2 -347 -11z m695 -248 c88 -28 147 -86 184 -182 51 -137
43 -395 -17 -522 -24 -51 -78 -101 -142 -130 -54 -25 -64 -26 -290 -30 -152
-3 -236 0 -240 6 -3 6 -6 202 -6 437 0 354 3 428 15 435 7 4 111 7 229 5 163
-2 229 -7 267 -19z"/>
<path d="M2645 11249 c-166 -21 -280 -97 -326 -218 -28 -74 -30 -204 -6 -278
21 -61 82 -134 134 -158 l37 -18 -36 -18 c-50 -25 -114 -102 -136 -162 -11
-27 -20 -80 -21 -117 -5 -183 83 -309 253 -363 69 -21 85 -22 480 -22 l410 0
0 113 c1 63 -2 116 -5 118 -4 2 -175 4 -380 4 -363 1 -375 2 -418 23 -62 30
-84 64 -88 134 -5 76 17 119 77 153 l45 25 377 0 377 0 3 108 c2 59 1 107 -2
108 -3 0 -171 2 -375 3 -319 2 -375 5 -408 19 -61 26 -83 56 -90 123 -5 44 12
105 38 134 9 10 33 27 53 36 33 16 74 18 412 19 l375 1 3 120 3 120 -368 -1
c-202 0 -390 -3 -418 -6z"/>
<path d="M4247 11254 c-1 -1 -27 -4 -57 -7 -199 -22 -367 -151 -437 -337 -38
-99 -51 -203 -48 -365 2 -139 6 -172 30 -250 14 -49 38 -112 53 -140 43 -79
132 -161 218 -202 119 -54 180 -62 527 -63 302 -1 307 0 308 20 0 11 1 56 1
100 0 44 -1 89 -1 100 -1 20 -8 20 -299 20 -332 0 -381 7 -463 62 -92 62 -134
172 -138 361 -4 195 39 325 128 393 80 62 111 66 454 69 169 1 310 5 313 7 6
7 10 228 4 229 -7 2 -590 5 -593 3z"/>
<path d="M5440 11248 c-122 -16 -227 -71 -283 -148 -73 -102 -82 -278 -19
-394 26 -47 88 -106 126 -120 16 -6 12 -11 -26 -35 -63 -40 -106 -96 -129
-171 -56 -181 21 -372 178 -442 96 -42 158 -48 563 -48 l386 0 -1 118 0 117
-390 5 c-432 6 -429 5 -477 72 -33 46 -33 149 -1 194 46 65 67 68 473 70 201
2 370 3 375 3 12 1 13 196 2 207 -4 5 -173 8 -375 9 -358 0 -368 1 -412 22
-58 29 -81 68 -81 137 0 87 40 141 121 163 19 5 198 9 397 9 234 -1 364 3 366
9 2 9 1 176 -2 215 -1 13 -48 15 -368 15 -203 0 -393 -3 -423 -7z"/>
<path d="M8195 11251 c-3 -2 -5 -55 -5 -118 0 -101 2 -113 18 -114 9 -1 99 -1
200 -1 l182 0 0 -564 0 -564 120 0 120 0 0 564 0 563 188 1 c103 0 193 0 200
1 9 1 12 32 12 119 l0 118 -515 0 c-284 0 -518 -2 -520 -5z"/>
<path d="M9516 11251 c-2 -4 -3 -57 -2 -120 l1 -114 405 -1 c422 -1 424 -2
474 -45 71 -62 70 -198 -1 -273 -44 -46 -72 -49 -392 -50 -321 0 -375 -5 -421
-39 -59 -44 -63 -71 -64 -412 l-2 -308 120 3 120 3 0 250 c1 138 4 255 8 261
5 8 68 12 191 13 l184 2 24 -38 c14 -21 85 -140 158 -265 l133 -228 129 0 c71
0 129 4 129 8 0 5 -69 128 -154 273 -90 154 -149 266 -143 268 82 27 172 97
212 165 78 134 85 321 16 453 -49 94 -139 157 -272 189 -31 8 -849 12 -853 5z"/>
<path d="M17264 11248 c-17 -4 -39 -17 -50 -29 -18 -20 -19 -44 -20 -635 0
-467 3 -621 12 -643 21 -49 52 -53 409 -49 262 4 331 7 378 21 284 82 413 303
402 687 -4 163 -8 192 -40 287 -43 126 -109 214 -213 281 -48 30 -162 77 -162
67 0 -3 -12 0 -27 7 -33 13 -641 19 -689 6z m409 -495 c15 -7 43 -29 63 -48
20 -19 39 -35 44 -35 4 0 21 16 37 35 69 80 177 80 229 -1 21 -31 27 -84 14
-118 -10 -26 -268 -296 -283 -296 -5 0 -70 62 -147 139 -119 120 -139 144
-145 179 -18 107 94 194 188 145z"/>
<path d="M13391 11186 c-1 -21 -35 -86 -71 -135 -32 -44 -118 -107 -168 -123
l-40 -12 67 -33 c36 -18 81 -47 100 -64 40 -39 97 -126 107 -164 6 -25 8 -23
37 36 39 81 114 156 197 197 36 17 56 31 45 32 -27 0 -112 50 -156 92 -39 36
-75 90 -101 153 -9 22 -17 32 -17 21z"/>
<path d="M1393 9299 c-62 -11 -116 -43 -159 -93 -44 -50 -57 -78 -149 -331
-36 -99 -70 -189 -75 -200 -5 -11 -39 -101 -75 -200 -37 -99 -78 -209 -92
-245 -64 -170 -66 -196 -20 -245 52 -55 130 -54 172 2 16 21 109 256 200 508
8 22 28 76 44 120 16 44 43 118 60 165 17 47 35 94 40 105 5 11 22 54 38 95
19 52 36 79 54 89 32 18 74 8 90 -20 8 -15 12 -158 13 -473 l2 -451 27 -57
c35 -71 86 -113 163 -133 160 -42 299 6 371 127 17 29 88 204 158 388 69 184
130 344 135 355 5 11 27 67 49 125 22 58 49 115 60 128 24 27 61 28 92 4 l22
-19 1 -546 c0 -301 2 -548 5 -548 3 -1 57 -3 119 -4 l112 -2 -1 571 c-1 314
-5 585 -10 602 -18 63 -71 127 -131 158 -51 25 -68 29 -150 29 -137 1 -215
-39 -274 -139 -13 -22 -87 -207 -164 -410 -77 -203 -144 -378 -149 -389 -5
-11 -21 -54 -36 -95 -40 -111 -96 -149 -145 -100 -19 19 -20 34 -21 438 0 229
-2 431 -3 447 -13 119 -74 200 -177 234 -45 15 -142 20 -196 10z"/>
<path d="M16310 9300 c-83 -16 -146 -60 -182 -132 -10 -18 -52 -121 -94 -228
-41 -107 -118 -301 -169 -430 -190 -482 -215 -547 -215 -556 0 -5 55 -9 123
-9 l122 0 21 45 c12 25 69 167 127 315 247 630 287 729 300 742 25 25 65 25
90 1 13 -14 76 -167 160 -393 76 -203 144 -383 151 -400 7 -16 35 -88 61 -160
26 -71 53 -135 60 -140 12 -10 239 -14 249 -5 3 4 -218 595 -426 1139 -42 111
-74 153 -142 186 -57 28 -158 39 -236 25z"/>
<path d="M3148 9282 c-33 -4 -29 69 -28 -567 0 -231 2 -431 5 -445 13 -68 19
-89 41 -131 50 -100 148 -168 268 -186 23 -4 147 -7 277 -6 216 0 241 2 303
23 82 27 140 70 183 134 66 97 66 97 68 659 2 302 -1 510 -7 513 -12 8 -208 7
-216 0 -3 -3 -6 -219 -6 -479 l-1 -472 -23 -47 c-19 -38 -34 -52 -75 -72 -49
-24 -61 -26 -228 -27 -238 -1 -284 14 -331 104 -21 41 -21 52 -22 520 l0 477
-26 1 c-14 0 -54 1 -90 2 -36 1 -77 1 -92 -1z"/>
<path d="M4905 9278 c-110 -8 -168 -25 -229 -68 -52 -35 -105 -112 -124 -176
-16 -55 -18 -209 -3 -262 18 -66 48 -117 91 -156 96 -86 171 -103 468 -105
282 -2 321 -11 364 -80 26 -41 27 -124 4 -169 -19 -37 -60 -67 -102 -76 -17
-4 -208 -7 -423 -7 l-391 -1 -1 -41 c-2 -63 2 -181 6 -187 2 -3 196 -5 432 -4
375 1 434 4 478 19 165 56 245 166 251 345 3 77 -6 150 -23 190 -3 8 -7 17 -8
20 -10 39 -80 118 -137 153 -62 38 -159 55 -329 56 -357 3 -388 8 -433 69 -48
64 -25 186 44 227 33 19 53 20 412 23 l377 3 0 115 1 114 -53 0 c-466 4 -596
4 -672 -2z"/>
<path d="M6028 9282 c-16 -2 -28 -9 -29 -15 -4 -68 0 -1307 4 -1313 4 -7 156
-11 215 -5 9 1 12 141 12 666 l0 665 -22 1 c-13 0 -52 1 -88 2 -36 1 -77 1
-92 -1z"/>
<path d="M7005 9277 c-100 -11 -170 -33 -247 -78 -81 -48 -138 -110 -183 -203
-60 -123 -70 -178 -70 -386 0 -163 3 -195 23 -265 58 -202 177 -324 364 -375
78 -22 103 -23 396 -24 172 -1 317 1 321 4 4 3 7 55 7 117 l0 112 -291 0
c-171 0 -310 4 -339 11 -175 39 -254 169 -253 419 0 238 71 375 214 417 74 22
83 22 393 23 l276 1 -1 109 c0 60 -3 112 -7 116 -9 10 -519 12 -603 2z"/>
<path d="M8960 9282 c-126 -11 -255 -67 -317 -136 -51 -58 -91 -152 -99 -231
-11 -113 -10 -964 1 -968 6 -1 57 -2 115 -2 l105 0 5 265 5 264 398 0 c218 0
398 2 398 5 4 20 4 211 -1 212 -3 1 -183 2 -400 3 l-395 2 -3 90 c-3 107 17
167 70 207 26 20 98 48 141 56 4 0 140 1 302 1 l295 0 0 115 c0 85 -3 115 -12
116 -59 2 -581 3 -608 1z"/>
<path d="M10247 9284 c-1 -1 -29 -4 -62 -7 -163 -17 -274 -86 -328 -206 -30
-65 -31 -237 -3 -296 32 -66 55 -94 109 -130 50 -34 50 -34 26 -44 -60 -22
-126 -104 -150 -183 -15 -49 -12 -176 6 -235 22 -73 80 -142 151 -180 101 -53
134 -56 552 -57 211 -1 387 1 391 4 5 3 8 55 8 117 l-1 112 -346 -1 c-190 0
-365 3 -390 7 -92 15 -146 86 -137 178 6 72 58 128 128 141 13 2 184 5 380 5
l356 1 -1 105 c-1 98 -2 105 -21 106 -11 0 -168 1 -350 1 -347 1 -402 6 -444
45 -69 65 -54 206 27 251 54 29 82 31 457 32 l340 0 0 115 1 115 -36 0 c-168
2 -662 5 -663 4z"/>
<path d="M11575 9278 c-49 -3 -105 -11 -123 -17 -37 -11 -105 -51 -137 -78
-66 -57 -103 -161 -103 -282 0 -190 76 -306 239 -362 52 -18 91 -23 214 -26
390 -9 389 -9 422 -26 50 -27 78 -73 80 -137 2 -73 -26 -123 -83 -151 -41 -19
-62 -20 -446 -22 l-403 -2 -1 -110 c-1 -60 2 -112 6 -115 12 -7 829 -4 868 4
51 10 114 37 152 64 76 56 111 113 137 222 9 41 2 191 -11 235 -50 167 -185
250 -414 254 -53 1 -167 3 -252 4 -129 2 -161 5 -193 21 -121 60 -107 246 22
285 26 7 156 11 395 11 278 0 356 3 357 13 3 40 0 210 -4 213 -8 8 -624 10
-722 2z"/>
<path d="M12553 9282 l-33 -3 0 -115 0 -114 195 0 195 0 0 -549 c0 -430 3
-550 13 -553 10 -3 159 -3 207 1 14 1 15 65 15 539 -1 295 1 543 3 550 3 9 51
12 193 12 173 0 189 1 190 18 6 150 3 212 -11 212 -78 3 -943 4 -967 2z"/>
<path d="M13787 9278 c-9 -5 -12 -170 -11 -669 l1 -664 99 0 c54 0 107 1 116
3 15 4 17 54 17 668 l0 664 -27 1 c-15 0 -62 1 -105 2 -43 1 -84 -1 -90 -5z"/>
<path d="M14247 9282 c-10 -2 -17 -5 -17 -6 0 -4 408 -1093 437 -1166 35 -86
62 -121 124 -155 69 -37 204 -44 289 -15 93 32 124 76 215 307 43 109 83 212
90 228 7 17 22 55 34 85 12 30 26 64 31 75 41 95 250 638 247 642 -3 2 -47 4
-98 4 -174 1 -151 12 -194 -98 -21 -54 -83 -210 -137 -346 -54 -136 -98 -250
-98 -252 0 -3 -8 -24 -19 -48 -10 -23 -47 -114 -82 -202 -54 -135 -68 -161
-90 -169 -39 -13 -79 11 -97 59 -8 22 -25 67 -37 100 -13 33 -50 132 -83 220
-127 337 -234 622 -255 678 -12 31 -26 57 -32 57 -64 3 -215 4 -228 2z"/>
<path d="M17292 9282 l-43 -3 4 -497 c1 -273 6 -510 10 -527 41 -162 174 -275
353 -301 81 -12 655 -11 698 1 92 25 109 148 27 202 -23 15 -61 17 -332 19
-168 1 -323 4 -345 8 -87 17 -151 72 -172 147 -6 22 -10 223 -10 488 0 249 -2
454 -4 456 -6 6 -134 11 -186 7z"/>
</g>
</svg>
