<svg width="33" height="16" viewBox="0 0 33 16" fill="none" xmlns="http://www.w3.org/2000/svg">
<path d="M25.66 0H20.9558C19.8087 0 19.1632 1.31018 19.8645 2.21296L23.6028 7.03704C23.9836 7.52778 23.9883 8.20371 23.6167 8.69908L19.7948 13.8009C19.1168 14.7083 19.7623 16 20.9 16H26.1848C26.612 16 27.0207 15.8009 27.2808 15.463L32.0826 9.20834C32.4587 8.7176 32.4634 8.03704 32.0826 7.54167L26.756 0.546293C26.496 0.2037 26.0873 0.00463415 25.66 0.00463415V0Z" fill="#0FF3F2"/>
<path d="M13.5302 0H8.82589C7.67885 0 7.03336 1.31018 7.73459 2.21296L11.4729 7.03704C11.8537 7.52778 11.8584 8.20371 11.4869 8.69908L7.66492 13.8009C6.98691 14.7083 7.63241 16 8.77017 16H14.0549C14.4822 16 14.8908 15.8009 15.1509 15.463L19.9527 9.20834C20.3288 8.7176 20.3335 8.03704 19.9527 7.54167L14.6261 0.546293C14.3661 0.2037 13.9574 0.00463415 13.5302 0.00463415V0Z" fill="#0FF3F2"/>
<path d="M1.43746 0C0.29042 0 -0.355071 1.31018 0.346158 2.21296L4.08449 7.03704C4.46529 7.52778 4.46992 8.20371 4.09841 8.69908L0.276488 13.8009C-0.401521 14.7083 0.243983 16 1.38174 16H1.96222C2.38946 16 2.79812 15.8009 3.05818 15.463L7.85998 9.20834C8.23614 8.7176 8.24078 8.03704 7.85998 7.54167L2.53342 0.546293C2.27336 0.2037 1.8647 0.00463415 1.43746 0.00463415V0Z" fill="#0FF3F2"/>
</svg>
