<svg width="39" height="29" viewBox="0 0 39 29" fill="none" xmlns="http://www.w3.org/2000/svg">
<path d="M38.5972 13.7742C32.246 9.81772 27.5423 5.29777 24.6025 0.342976C24.4739 0.128615 24.2473 0 23.9962 0H20.5664C20.0091 0 19.6722 0.618578 19.9784 1.08405C21.7484 3.82174 23.7512 6.3757 25.9315 8.6663C27.7383 10.5649 29.6675 12.2859 31.6948 13.811C32.0684 14.0927 32.0623 14.65 31.6948 14.9318C29.6982 16.4262 27.7873 18.1288 26.005 20.0274C23.8982 22.2629 21.8954 24.8291 20.0397 27.6648C19.7335 28.1303 20.0703 28.755 20.6276 28.755H24.0023C24.2412 28.755 24.4678 28.6325 24.5964 28.4304C27.922 23.1755 32.7666 18.5269 38.5911 14.9869C39.0382 14.7174 39.0443 14.0682 38.5972 13.7926V13.7742Z" fill="#A66CFE"/>
<path d="M30.4576 14.9685C30.9047 14.699 30.9108 14.0498 30.4637 13.7742C24.1125 9.81772 19.4088 5.29777 16.4752 0.342976C16.3465 0.128615 16.1199 0 15.8688 0H12.4391C11.8817 0 11.5449 0.618578 11.8511 1.08405C13.3026 3.3379 14.9256 5.46927 16.665 7.42914C17.6143 8.49482 18.6004 9.51149 19.6232 10.4792C20.0887 10.9201 19.7825 11.6919 19.1455 11.6919H0.704325C0.318475 11.6919 0 12.0042 0 12.3962V16.3465C0 16.7324 0.312351 17.0509 0.704325 17.0509H19.1394C19.7763 17.0509 20.0826 17.8226 19.6171 18.2636C18.6249 19.2129 17.6572 20.2173 16.7324 21.2707C15.0481 23.1877 13.4251 25.3375 11.9062 27.6587C11.6 28.1241 11.9368 28.7489 12.4942 28.7489H15.8688C16.1077 28.7489 16.3343 28.6264 16.4629 28.4243C19.7947 23.1694 24.6331 18.5208 30.4576 14.9808V14.9685Z" fill="#A66CFE"/>
</svg>
