<svg width="579" height="41" viewBox="0 0 579 41" fill="none" xmlns="http://www.w3.org/2000/svg">
<g opacity="0.9">
<path d="M44.1239 27.7119L32.949 34.4241L39.8759 23.5956C39.9718 23.4362 39.8896 23.2371 39.6978 23.1906L0 20.2826L39.6978 17.3747C39.8828 17.3348 39.9718 17.129 39.8759 16.9697L32.949 6.1412L44.1239 12.8534C44.2883 12.9464 44.4939 12.8667 44.5418 12.6808L47.5428 0.278809L50.5438 12.6808C50.5849 12.86 50.7973 12.9464 50.9617 12.8534L62.1366 6.1412L55.2097 16.9697C55.1137 17.129 55.196 17.3282 55.3878 17.3747L68.1865 20.2826L55.3878 23.1906C55.2028 23.2304 55.1137 23.4362 55.2097 23.5956L62.1366 34.4241L50.9617 27.7119C50.7973 27.6189 50.5917 27.6986 50.5438 27.8845L47.5428 40.2865L44.5418 27.8845C44.5007 27.7052 44.2883 27.6189 44.1239 27.7119Z" fill="#FCFCFC"/>
<path d="M107.48 0L109.995 16.0602L125.602 10.1447L112.502 20.2827L125.602 30.4273L109.995 24.5052L107.48 40.5653L104.959 24.5052L89.351 30.4273L102.444 20.2827L89.351 10.1447L104.959 16.0602L107.48 0Z" fill="#FCFCFC"/>
<path d="M175.078 23.5956L182.004 34.4241L170.83 27.7119C170.665 27.6189 170.46 27.6986 170.412 27.8845L167.411 40.2865L164.41 27.8845C164.369 27.7052 164.156 27.6189 163.992 27.7119L152.817 34.4241L159.744 23.5956C159.84 23.4362 159.757 23.2371 159.566 23.1906L146.767 20.2826L159.566 17.3747C159.751 17.3348 159.84 17.129 159.744 16.9697L152.817 6.1412L163.992 12.8534C164.156 12.9464 164.362 12.8667 164.41 12.6808L167.411 0.278809L170.412 12.6808C170.453 12.86 170.665 12.9464 170.83 12.8534L182.004 6.1412L175.078 16.9697C174.982 17.129 175.064 17.3282 175.256 17.3747L188.054 20.2826L175.256 23.1906C175.071 23.2304 174.982 23.4362 175.078 23.5956Z" fill="#FCFCFC"/>
<path d="M235.424 24.4953L240.015 31.6656C240.453 32.3495 239.645 33.1329 238.939 32.708L231.539 28.2597C230.923 27.8879 230.107 28.2133 229.943 28.8971L227.956 37.1164C227.771 37.8932 226.613 37.8932 226.428 37.1164L224.441 28.8971C224.277 28.2133 223.462 27.8879 222.845 28.2597L215.445 32.708C214.74 33.1329 213.931 32.3495 214.37 31.6656L218.96 24.4953C219.344 23.8978 219.008 23.1077 218.302 22.9484L209.82 21.023C209.018 20.8438 209.018 19.7218 209.82 19.5425L218.302 17.6172C219.008 17.4578 219.344 16.6677 218.96 16.0702L214.37 8.89992C213.931 8.21608 214.74 7.43267 215.445 7.85757L222.845 12.3058C223.462 12.6776 224.277 12.3523 224.441 11.6685L226.428 3.44916C226.613 2.67238 227.771 2.67238 227.956 3.44916L229.943 11.6685C230.107 12.3523 230.923 12.6776 231.539 12.3058L238.939 7.85757C239.645 7.43267 240.453 8.21608 240.015 8.89992L235.424 16.0702C235.041 16.6677 235.376 17.4578 236.082 17.6172L244.564 19.5425C245.366 19.7218 245.366 20.8438 244.564 21.023L236.082 22.9484C235.376 23.1077 235.041 23.8978 235.424 24.4953Z" fill="#FCFCFC"/>
<path d="M284.459 3.40601L287.81 14.9847L302.581 8.55136L291.167 19.0213L302.581 25.209L287.81 24.326L284.459 37.1596L281.102 25.6074L266.33 32.2333L277.751 21.5442L266.33 15.1374L281.102 16.2196L284.459 3.40601Z" fill="#FCFCFC"/>
<path d="M341.875 0L344.39 16.0602L359.997 10.1447L346.904 20.2827L359.997 30.4273L344.39 24.5052L341.875 40.5653L339.361 24.5052L323.746 30.4273L336.846 20.2827L323.746 10.1447L339.361 16.0602L341.875 0Z" fill="#FCFCFC"/>
<path d="M399.284 3.40601L401.799 16.3059L417.413 8.55136L404.32 19.34L417.413 25.209L401.799 23.3169L399.284 37.1596L396.777 24.2796L381.162 32.2333L394.255 21.2255L381.162 15.1374L396.777 17.2354L399.284 3.40601Z" fill="#FCFCFC"/>
<path d="M456.7 3.47896L459.64 14.9913L474.829 2.74866L462.579 17.7532L474.829 20.7209L459.64 23.4098L456.7 37.8167L453.754 26.238L438.578 37.7371L450.815 23.5359L438.578 21.3649L453.754 17.9457L456.7 3.47896Z" fill="#FCFCFC"/>
<path d="M512.133 3.32639L514.031 15.4296C514.086 15.7549 514.428 15.9475 514.743 15.828L526.507 11.3664C527.069 11.154 527.501 11.8776 527.028 12.2428L517.162 19.8845C516.901 20.0903 516.901 20.4754 517.162 20.6812L527.028 28.3229C527.501 28.688 527.069 29.4051 526.507 29.1992L514.743 24.7377C514.428 24.6182 514.086 24.8107 514.031 25.1361L512.133 37.2393C512.037 37.8169 511.18 37.8169 511.091 37.2393L509.193 25.1361C509.139 24.8107 508.796 24.6182 508.481 24.7377L496.717 29.1992C496.155 29.4117 495.723 28.688 496.196 28.3229L506.062 20.6812C506.323 20.4754 506.323 20.0903 506.062 19.8845L496.196 12.2428C495.723 11.8776 496.155 11.1606 496.717 11.3664L508.481 15.828C508.796 15.9475 509.139 15.7549 509.193 15.4296L511.091 3.32639C511.187 2.74879 512.044 2.74879 512.133 3.32639Z" fill="#FCFCFC"/>
<path d="M564.283 6.40505L566.106 15.7265C566.167 16.0186 566.558 16.1248 566.907 15.9522L578.185 10.362C578.822 10.05 579.302 10.6342 578.774 11.0658L569.305 18.8535C569.011 19.0991 569.011 19.4643 569.305 19.5971L578.774 23.8462C579.302 24.0852 578.822 24.842 578.185 24.769L566.907 23.3947C566.551 23.3482 566.161 23.6005 566.106 23.9192L564.283 33.9178C564.187 34.4755 563.208 34.6747 563.112 34.1502L561.289 24.8354C561.227 24.5433 560.837 24.437 560.487 24.6163L549.21 30.3658C548.573 30.6911 548.093 30.1003 548.621 29.6488L558.089 21.7017C558.384 21.4561 558.384 21.0843 558.089 20.9515L548.621 16.5431C548.093 16.2974 548.573 15.5206 549.21 15.6136L560.487 17.1472C560.844 17.1937 561.234 16.9414 561.289 16.6294L563.112 6.63079C563.208 6.0731 564.187 5.90049 564.283 6.42498V6.4117V6.40505Z" fill="#FCFCFC"/>
</g>
</svg>
