<svg width="33" height="33" viewBox="0 0 33 33" fill="none" xmlns="http://www.w3.org/2000/svg">
<path d="M32.4961 14.7351C32.205 14.3042 31.8686 13.9866 31.5359 13.7144C30.8592 13.1662 30.1635 12.7881 29.4604 12.4479C28.0502 11.7825 26.6098 11.3364 25.1581 10.9621C25.09 10.947 25.0182 10.9281 24.9464 10.913C25.143 10.6068 25.3358 10.2968 25.521 9.98676C26.2771 8.70894 26.9576 7.3744 27.4718 5.92267C27.7213 5.19303 27.933 4.44072 28.0011 3.60522C28.0389 3.18936 28.0389 2.7508 27.9406 2.28579C27.8423 1.82456 27.6155 1.3142 27.2072 0.943703C26.8026 0.573209 26.2885 0.414442 25.8462 0.369075C25.3925 0.323709 24.9804 0.376633 24.5948 0.459805C23.816 0.622368 23.1317 0.928579 22.4701 1.24993C21.5326 1.71493 20.6555 2.26691 19.8124 2.84911C19.5289 2.3274 19.2075 1.80945 18.7955 1.32176C18.527 1.00041 18.2208 0.690415 17.8201 0.433338C17.4269 0.176261 16.9052 -0.0241134 16.3532 0.00235046C15.805 0.0288143 15.3249 0.274562 14.9809 0.558103C14.6293 0.845424 14.376 1.17433 14.1605 1.50324C13.877 1.94178 13.6653 2.39543 13.48 2.85287C13.3628 2.77726 13.2418 2.70544 13.1246 2.62983C11.8468 1.86994 10.5123 1.18943 9.06055 0.67906C8.3309 0.429544 7.57479 0.217847 6.73928 0.149797C6.32721 0.111992 5.88867 0.111982 5.41988 0.210276C4.96243 0.304789 4.45204 0.5354 4.08155 0.939918C3.71106 1.34822 3.54851 1.86239 3.50692 2.30471C3.46156 2.75838 3.5107 3.17046 3.59765 3.55607C3.76022 4.33486 4.06643 5.01914 4.38777 5.68074C5.04559 7.00015 5.85841 8.19479 6.70903 9.35163C7.13624 9.92249 7.57856 10.4896 8.02844 11.0415C7.88478 11.0718 7.73735 11.1058 7.59369 11.1436C6.14952 11.5141 4.72803 11.9753 3.33679 12.6407C2.64495 12.981 1.96445 13.3628 1.32176 13.9034C1.00419 14.1718 0.690415 14.478 0.433338 14.8788C0.176261 15.272 -0.0241134 15.7937 0.00235046 16.3456C0.0288143 16.8938 0.278319 17.3777 0.55808 17.718C0.845401 18.0696 1.17431 18.3267 1.507 18.5384C2.17238 18.9731 2.87178 19.2416 3.5674 19.4797C3.67704 19.5175 3.79046 19.5515 3.90388 19.5856C3.80558 19.8011 3.70729 20.0166 3.62412 20.2472C3.48424 20.6101 3.35568 20.9881 3.27629 21.4002C3.1969 21.8085 3.14775 22.2508 3.20446 22.7461C3.25361 23.23 3.4502 23.8122 3.87363 24.2659C4.30461 24.7233 4.88302 24.9615 5.37827 25.056C5.88487 25.1543 6.3461 25.143 6.77708 25.0976C7.64283 25.0069 8.40272 24.78 9.14371 24.523C10.1191 24.1714 11.0378 23.7442 11.9224 23.2716C11.9602 23.8236 12.0094 24.3793 12.0736 24.9313C12.2362 26.3717 12.4668 27.812 12.9243 29.2486C13.0414 29.6078 13.1738 29.967 13.3326 30.3223C13.4876 30.6777 13.669 31.0406 13.8996 31.3847C14.134 31.7325 14.4062 32.0803 14.7994 32.3941C15.1812 32.7003 15.7219 32.9687 16.3494 32.9914C16.977 33.0103 17.5517 32.7683 17.9713 32.4886C18.3985 32.1975 18.7198 31.861 18.992 31.5283C19.5402 30.8516 19.9145 30.156 20.2585 29.449C20.9239 28.0389 21.3662 26.6023 21.7405 25.1505C21.8426 24.7309 21.9371 24.3075 22.024 23.884C22.1299 23.9408 22.2395 23.9975 22.3454 24.0542C22.6818 24.2205 23.0259 24.3869 23.3926 24.523C23.7555 24.6591 24.1373 24.7914 24.5494 24.8708C24.9577 24.9502 25.3963 24.9993 25.8915 24.9426C26.3754 24.8897 26.9576 24.6969 27.4151 24.2697C27.8688 23.8425 28.1107 23.2678 28.2014 22.765C28.2997 22.2622 28.2884 21.801 28.243 21.37C28.1977 20.9277 28.1183 20.5118 28.0124 20.1149C28.4283 20.0203 28.8404 19.9069 29.2562 19.7746C29.6154 19.6574 29.9745 19.5251 30.3299 19.3663C30.689 19.2113 31.0482 19.0298 31.3922 18.7992C31.74 18.5648 32.0878 18.2926 32.3978 17.8995C32.7041 17.5214 32.9763 16.977 32.999 16.3494C33.0179 15.7219 32.7759 15.1472 32.4961 14.7314V14.7351ZM19.0034 20.8974C18.3645 20.5383 17.7444 20.1527 17.132 19.7444C17.8805 19.1206 18.6064 18.4665 19.302 17.7823C19.2718 18.6858 19.2264 19.5856 19.1659 20.4853C19.1584 20.6177 19.147 20.7538 19.1395 20.8861C19.0941 20.8936 19.0487 20.8974 19.0034 20.8974ZM14.3495 17.7407C13.9526 18.0885 13.5518 18.4287 13.1435 18.7576C12.7277 19.1054 12.308 19.4457 11.8846 19.7746C11.843 19.8086 11.8014 19.8389 11.7598 19.8653C11.688 19.9258 11.6162 19.9787 11.5406 20.0317C11.2797 20.2283 11.0226 20.4249 10.758 20.6139C9.79019 20.474 8.82993 20.2888 7.88102 20.0657C7.10979 19.8805 6.3461 19.665 5.60134 19.4003C6.00964 18.2435 6.56916 17.098 7.18917 15.9827C7.62771 15.1964 8.10405 14.4289 8.62199 13.6841C9.13992 13.6237 9.66543 13.5745 10.1871 13.5329C10.2098 13.5291 10.2325 13.5254 10.259 13.5254C10.758 13.4838 11.257 13.4535 11.7636 13.4309C11.7787 13.4271 11.7976 13.4271 11.8128 13.4271C13.325 13.3515 14.8448 13.3363 16.357 13.3628C17.2227 13.3817 18.0847 13.412 18.9467 13.4573C18.5535 13.8543 18.1603 14.2399 17.7596 14.6255C16.7653 15.5782 15.7483 16.5158 14.7087 17.4193C14.6104 17.5063 14.5121 17.5932 14.41 17.684C13.8769 17.2379 13.3552 16.7729 12.8524 16.2927C13.3439 16.7842 13.8429 17.2643 14.3457 17.7444H14.3495V17.7407ZM14.4667 7.19296C13.9299 7.68821 13.4006 8.18724 12.8827 8.70517C13.4082 8.19858 13.9526 7.70332 14.5045 7.22697C15.5026 8.12674 16.4704 9.06811 17.408 10.0321C17.0564 10.0284 16.7048 10.0283 16.3532 10.0359C14.9506 10.0699 13.5556 10.1607 12.1606 10.327C12.2173 9.95653 12.2816 9.58603 12.3572 9.21932C12.4403 8.76566 12.5349 8.31956 12.6445 7.87723C12.7919 7.261 12.9621 6.64855 13.1549 6.04744C13.5972 6.41793 14.032 6.79978 14.4629 7.19296H14.4667ZM18.2132 4.39913C18.4552 5.17414 18.6253 5.98317 18.7614 6.80733C18.1679 6.28184 17.563 5.76769 16.9392 5.28C17.355 4.97378 17.7785 4.67889 18.2094 4.39913H18.2132ZM11.9678 10.3497C11.7107 10.3799 11.4536 10.414 11.1928 10.4518C11.465 10.1418 11.7523 9.83556 12.0509 9.5369C12.0169 9.8091 11.9905 10.0775 11.9678 10.3497ZM22.6705 16.3532C22.6667 16.2209 22.6629 16.0848 22.6554 15.9525C22.8293 16.1755 23.0032 16.391 23.1658 16.6179C23.937 17.6235 24.6628 18.6745 25.2261 19.7519C25.0825 19.7935 24.935 19.8351 24.7914 19.8767C24.0466 20.0884 23.2905 20.2661 22.5268 20.4135C22.6478 19.0639 22.6894 17.7029 22.6667 16.3532H22.6705ZM22.8028 2.04007C23.4569 1.81324 24.126 1.63934 24.7649 1.59775C25.0825 1.57507 25.3887 1.59018 25.642 1.65445C25.8991 1.7225 26.0768 1.83593 26.1788 1.97581C26.3754 2.23666 26.4019 2.76216 26.2469 3.34436C26.1146 3.92279 25.8424 4.52767 25.5475 5.11366C24.9502 6.29319 24.1563 7.41599 23.3245 8.50101C22.92 9.02272 22.5042 9.54067 22.0732 10.0473C21.9295 9.2231 21.7556 8.40272 21.5552 7.58612C21.1885 6.14196 20.7235 4.72047 20.0619 3.32923C20.0544 3.31788 20.0506 3.30277 20.043 3.29143C20.9352 2.79618 21.8577 2.36519 22.799 2.03629H22.8028V2.04007ZM15.0905 2.19506C15.2984 1.95311 15.5253 1.74519 15.7521 1.61665C15.9827 1.48433 16.1907 1.43895 16.3608 1.46164C16.6859 1.507 17.0753 1.86237 17.3815 2.38409C17.6877 2.87934 17.9221 3.48424 18.1263 4.0929C17.6764 4.44071 17.2341 4.79609 16.7993 5.15902C15.9903 4.53145 15.1586 3.93033 14.2966 3.37081C14.5385 2.9436 14.7994 2.54288 15.0981 2.19885H15.0905V2.19506ZM7.03039 9.13992C6.29319 7.93015 5.63158 6.66366 5.17792 5.35559C4.95487 4.70156 4.78097 4.03242 4.73938 3.39351C4.71292 3.07595 4.72803 2.76594 4.79608 2.51642C4.86035 2.25935 4.97377 2.08164 5.11366 1.97957C5.37829 1.78298 5.90001 1.75652 6.486 1.91152C7.06442 2.04384 7.6693 2.31605 8.2515 2.61094C9.43103 3.20826 10.5576 4.00218 11.6426 4.8339C11.9829 5.09854 12.3231 5.36315 12.6558 5.63913C12.5008 6.36122 12.3723 7.0871 12.2627 7.80919C12.1795 8.38383 12.1077 8.95847 12.0472 9.53311C11.7372 9.8469 11.4347 10.1531 11.1361 10.4631C10.1758 10.5992 9.21175 10.7769 8.26283 10.9962C7.83185 10.3875 7.41979 9.77505 7.03039 9.13992ZM3.89631 18.6972C3.2763 18.3947 2.67898 18.0393 2.19885 17.6197C1.95689 17.4118 1.75275 17.1849 1.62043 16.9581C1.48812 16.7275 1.44274 16.5196 1.46542 16.3532C1.51079 16.0281 1.86616 15.6425 2.38787 15.3325C2.89069 15.0187 3.51069 14.7843 4.1307 14.5763C5.37828 14.168 6.72794 13.9337 8.07759 13.7522C8.03222 13.7976 7.99065 13.8467 7.94906 13.8959C7.47272 14.4327 7.00393 14.9847 6.55783 15.5517C5.72989 16.5876 4.93975 17.6651 4.28193 18.8673C4.15339 18.8144 4.02485 18.7539 3.90009 18.6934L3.89631 18.6972ZM8.16832 22.2131C7.59368 22.5004 6.99636 22.7537 6.45196 22.8709C6.17598 22.9351 5.9189 22.9578 5.71853 22.9465C5.51438 22.9314 5.39719 22.8898 5.3178 22.8406C5.2384 22.7877 5.15146 22.6743 5.09097 22.4588C5.03804 22.2471 5.02291 21.9673 5.04937 21.6724C5.08717 21.1469 5.21951 20.5685 5.3972 20.0014C6.19489 20.1867 7.00015 20.3266 7.8054 20.4475C8.71651 20.5799 9.63519 20.6857 10.5463 20.7651C9.77129 21.3095 8.98114 21.8085 8.16832 22.2168V22.2131ZM19.0034 22.542C18.9391 23.2262 18.8711 23.903 18.769 24.5797C18.5913 25.9256 18.338 27.2714 17.9297 28.5039C17.7218 29.1163 17.4836 29.7137 17.1774 30.1824C17.0299 30.4244 16.8598 30.6248 16.7124 30.7533C16.5611 30.8856 16.4477 30.9386 16.3532 30.965C16.2625 30.9801 16.115 30.9612 15.926 30.8516C15.7408 30.742 15.5291 30.5529 15.3438 30.3261C14.9506 29.88 14.6028 29.3016 14.3004 28.7005C13.6841 27.4907 13.2154 26.1562 12.8297 24.7952C12.6672 24.213 12.5197 23.6232 12.395 23.0296C12.6785 22.8746 12.9545 22.7121 13.2305 22.5495C14.0244 22.0694 14.7956 21.5552 15.5366 21.0033C15.6311 21.0071 15.7219 21.0071 15.8202 21.0071C15.7294 21.0033 15.6349 21.0033 15.5404 20.9995C15.9714 20.6857 16.3948 20.3568 16.8107 20.0203C16.8825 20.0846 16.9581 20.1527 17.0375 20.2169C17.3286 20.474 17.6159 20.7273 17.9146 20.973C17.3966 20.9995 16.8711 21.0108 16.3532 21.0108C16.8825 21.0108 17.4156 21.0071 17.9448 20.9995C18.1906 21.2112 18.4363 21.4116 18.6896 21.6119C18.8106 21.7102 18.9391 21.8085 19.0639 21.9068C19.045 22.1223 19.0261 22.334 19.0034 22.5495V22.542ZM26.0087 21.7027C26.0692 21.9787 26.0957 22.2357 26.0805 22.4361C26.0654 22.6403 26.0276 22.7575 25.9785 22.8369C25.9256 22.9162 25.8121 23.0032 25.5929 23.0599C25.3812 23.1166 25.1052 23.1317 24.8103 23.1053C24.2167 23.0637 23.5627 22.8973 22.9238 22.6894C22.7083 22.6214 22.4928 22.5458 22.2773 22.4588C22.3605 21.9182 22.4323 21.3738 22.489 20.8331C22.5873 20.8294 22.6856 20.8256 22.7877 20.818C23.506 20.7727 24.2243 20.7197 24.9426 20.6328C25.1694 20.6063 25.3925 20.5798 25.6155 20.5496C25.7857 20.9466 25.9293 21.336 26.0087 21.7065V21.7027ZM30.8516 16.7804C30.7457 16.9657 30.5529 17.1774 30.3261 17.3664C29.88 17.7558 29.3016 18.1036 28.7005 18.406C28.3526 18.5799 27.9973 18.7463 27.6306 18.8975C27.1089 17.4685 26.4208 16.1718 25.6798 14.9204C25.4983 14.6142 25.3055 14.3079 25.1089 14.0131C26.2809 14.1832 27.434 14.4214 28.5039 14.7767C29.1163 14.9847 29.7137 15.2266 30.1824 15.5291C30.4244 15.6765 30.6248 15.8466 30.7533 15.9941C30.8856 16.1491 30.9386 16.2587 30.965 16.3532C30.9839 16.4477 30.965 16.5914 30.8516 16.7804Z" fill="#0FF3F2"/>
</svg>
